<?xml version="1.0" standalone="no"?>
<!DOCTYPE svg PUBLIC "-//W3C//DTD SVG 1.1//EN" "http://www.w3.org/Graphics/SVG/1.1/DTD/svg11.dtd" >
<svg xmlns="http://www.w3.org/2000/svg">
<metadata></metadata>
<defs>
<font id="righteousregular" horiz-adv-x="1380" >
<font-face units-per-em="2048" ascent="1638" descent="-410" />
<missing-glyph horiz-adv-x="573" />
<glyph horiz-adv-x="2048" />
<glyph horiz-adv-x="2048" />
<glyph unicode="&#xd;" horiz-adv-x="573" />
<glyph unicode=" "  horiz-adv-x="573" />
<glyph unicode="&#x09;" horiz-adv-x="573" />
<glyph unicode="&#xa0;" horiz-adv-x="573" />
<glyph unicode="!" horiz-adv-x="563" d="M109 1434h346l-62 -1080h-223zM111 102q0 35 13.5 66t37 54t54.5 36.5t67 13.5q35 0 66 -13.5t54 -36.5t36.5 -54t13.5 -66q0 -36 -13.5 -67.5t-36.5 -54.5t-54 -36.5t-66 -13.5q-36 0 -67 13.5t-54.5 36.5t-37 54.5t-13.5 67.5z" />
<glyph unicode="&#x22;" horiz-adv-x="838" d="M100 1434h289l-41 -451h-207zM449 1434h288l-41 -451h-207z" />
<glyph unicode="#" horiz-adv-x="1149" d="M68 420l59 207h129l43 153h-131l57 207h131l54 195h233l-53 -195h127l55 195h234l-56 -195h131l-57 -207h-129l-43 -153h131l-59 -207h-131l-50 -189h-235l51 189h-127l-51 -189h-236l54 189h-131zM489 627h129l44 153h-130z" />
<glyph unicode="$" horiz-adv-x="938" d="M90 307v217h500q21 0 37 16.5t16 39.5t-16 29.5t-37 6.5h-228q-57 0 -106.5 21.5t-86 59t-58 87.5t-21.5 107q0 56 21.5 105.5t58 86.5t86 58.5t106.5 21.5h25v271h184v-271h234v-219h-443q-23 0 -39 -15.5t-16 -37.5q0 -23 16 -39t39 -16h228q56 0 105.5 -19t86.5 -53 t58.5 -81t21.5 -103q0 -57 -21.5 -107t-58.5 -86.5t-86.5 -58t-105.5 -21.5h-19v-307h-184v307h-297z" />
<glyph unicode="%" horiz-adv-x="1403" d="M74 1096q0 100 22.5 169t61.5 112t91.5 62t112.5 19q61 0 113.5 -19.5t91.5 -62.5t61.5 -112t22.5 -168q0 -100 -22.5 -169.5t-61.5 -112.5t-91.5 -62t-113.5 -19q-60 0 -112.5 20t-91.5 63.5t-61.5 112.5t-22.5 167zM203 0l788 1434h217l-788 -1434h-217zM266 1096 q0 -88 25 -131t71 -43q48 0 73.5 43t25.5 131q0 89 -25.5 131.5t-73.5 42.5q-46 0 -71 -42.5t-25 -131.5zM752 342q0 100 22.5 169t61.5 112t91.5 62.5t112.5 19.5q61 0 113.5 -19.5t91.5 -63t61.5 -112.5t22.5 -168q0 -100 -22.5 -169t-61.5 -112t-91.5 -62t-113.5 -19 q-60 0 -112.5 19.5t-91.5 63t-61.5 112.5t-22.5 167zM944 342q0 -87 25 -129.5t71 -42.5q48 0 73.5 42.5t25.5 129.5q0 90 -25.5 132t-73.5 42q-46 0 -71 -42t-25 -132z" />
<glyph unicode="&#x26;" horiz-adv-x="995" d="M121 492q0 60 21 116t63 101q-42 45 -63 101t-21 118q0 67 25.5 126.5t69.5 103.5t103 69.5t127 25.5h21v183h184v-183h219v-217h-424q-22 0 -41.5 -8.5t-34.5 -23.5t-23.5 -34.5t-8.5 -41.5q0 -23 8.5 -43.5t23.5 -35.5t34.5 -23.5t41.5 -8.5h261v-217h-261 q-22 0 -41.5 -8.5t-34.5 -23.5t-23.5 -34.5t-8.5 -41.5q0 -23 8.5 -43.5t23.5 -35.5t34.5 -23.5t41.5 -8.5h424v-217h-219v-164h-184v164h-21q-68 0 -127 25.5t-103 70t-69.5 104t-25.5 128.5z" />
<glyph unicode="'" horiz-adv-x="489" d="M100 1434h289l-41 -451h-207z" />
<glyph unicode="(" horiz-adv-x="719" d="M74 745q0 111 13 208t34.5 180.5t49 153.5t56.5 126q68 131 154 225h309q-92 -112 -164 -251q-31 -59 -60.5 -130.5t-52.5 -152.5t-37 -171.5t-14 -187.5q0 -91 14 -180t37 -173t52.5 -161t60.5 -143q72 -156 164 -293h-309q-86 119 -154 268q-29 63 -56.5 138.5t-49 162 t-34.5 182t-13 199.5z" />
<glyph unicode=")" horiz-adv-x="719" d="M29 -205q91 137 163 293q31 66 60.5 143t52.5 161t37 173t14 180q0 97 -14 187.5t-37 171.5t-52.5 152.5t-60.5 130.5q-72 139 -163 251h309q85 -94 153 -225q29 -56 56.5 -126t49.5 -153.5t35 -180.5t13 -208q0 -104 -13 -199.5t-35 -182t-49.5 -162t-56.5 -138.5 q-68 -149 -153 -268h-309z" />
<glyph unicode="*" horiz-adv-x="1208" d="M72 1260l133 239l254 -133v336h286v-336l275 133l115 -250l-326 -168l240 -256l-224 -198l-217 284l-225 -284l-215 198l219 254z" />
<glyph unicode="+" horiz-adv-x="995" d="M78 588v272h284v295h273v-295h283v-272h-283v-273h-273v273h-284z" />
<glyph unicode="," horiz-adv-x="541" d="M98 102q0 35 13.5 66t37 54t54 36.5t65.5 13.5q36 0 67.5 -13.5t55 -36.5t36.5 -54t13 -66q0 -44 -8.5 -94.5t-27 -100t-48 -94t-71.5 -75.5l-109 76q28 32 42 60.5t22 57.5q-30 6 -56 21t-45 37.5t-30 51t-11 60.5z" />
<glyph unicode="-" horiz-adv-x="1083" d="M121 588v272h840v-272h-840z" />
<glyph unicode="." horiz-adv-x="539" d="M98 102q0 35 13.5 66t37 54t55 36.5t66.5 13.5q36 0 67 -13.5t54 -36.5t36 -54t13 -66q0 -36 -13 -67.5t-36 -54.5t-54 -36.5t-67 -13.5q-35 0 -66.5 13.5t-55 36.5t-37 54.5t-13.5 67.5z" />
<glyph unicode="/" horiz-adv-x="1004" d="M57 0l594 1434h295l-594 -1434h-295z" />
<glyph unicode="0" horiz-adv-x="1315" d="M84 717q0 204 45 344.5t122.5 227.5t182 126t223.5 39t223.5 -39.5t182.5 -127.5t123 -228t45 -342q0 -204 -45 -345t-123 -228t-182.5 -125.5t-223.5 -38.5t-223.5 39.5t-182 127t-122.5 228t-45 342.5zM360 717q0 -239 78 -355t219 -116q71 0 127 28.5t94.5 86.5 t59 146.5t20.5 209.5q0 239 -79.5 355t-221.5 116q-141 0 -219 -115t-78 -356z" />
<glyph unicode="1" horiz-adv-x="651" d="M78 1147v287h430v-1434h-287v1147h-143z" />
<glyph unicode="2" horiz-adv-x="1169" d="M88 0v430q0 89 34 167.5t92.5 137t136.5 92t167 33.5h144q30 0 56 11t45.5 30.5t30.5 46t11 56.5t-11 56t-30.5 45.5t-45.5 30.5t-56 11h-512v287h512q89 0 167 -34t136.5 -92.5t92.5 -136.5t34 -167t-34 -167.5t-92.5 -137t-136.5 -92.5t-167 -34h-144q-30 0 -56 -11 t-45.5 -30.5t-30.5 -45.5t-11 -56v-143h678v-287h-965z" />
<glyph unicode="3" horiz-adv-x="1202" d="M100 0v287h574q30 0 56 11t45.5 30.5t30.5 45.5t11 56t-11 56t-30.5 45.5t-45.5 30.5t-56 11h-391v287h391q30 0 56 11t45.5 30.5t30.5 46t11 56.5t-11 56t-30.5 45.5t-45.5 30.5t-56 11h-574v287h574q89 0 167 -34t136.5 -92.5t92.5 -136.5t34 -167q0 -79 -29 -153.5 t-82 -133.5q53 -59 82 -133.5t29 -153.5q0 -89 -34 -167t-92.5 -136.5t-136.5 -92.5t-167 -34h-574z" />
<glyph unicode="4" horiz-adv-x="1292" d="M59 287l160 1147h287l-125 -861h395v717h287v-717h143v-286h-143v-287h-287v287h-717z" />
<glyph unicode="5" horiz-adv-x="1200" d="M100 0v287h578q29 0 58.5 9t53 29t38 51t14.5 75q0 40 -14.5 70.5t-38 51t-53 31t-58.5 10.5h-578l84 820h885v-287h-627l-26 -246h262q89 0 170.5 -31t143.5 -89.5t99 -142t37 -187.5q0 -105 -37 -189t-99 -142t-143.5 -89t-170.5 -31h-578z" />
<glyph unicode="6" horiz-adv-x="1260" d="M76 526q0 138 27 269.5t79 249t127 216.5t170 173h387q-60 -39 -117 -87t-108.5 -103t-95.5 -116t-78 -127q43 29 93.5 49.5t103.5 20.5q121 0 218.5 -40.5t165.5 -113t105 -172.5t37 -219q0 -116 -41.5 -219t-114.5 -180.5t-173.5 -122.5t-217.5 -45t-220.5 45 t-180.5 122.5t-121.5 180.5t-44.5 219zM385 526q0 -55 18.5 -105.5t52.5 -89.5t81.5 -62t105.5 -23q59 0 107 22t82 60.5t52.5 89.5t18.5 108t-18.5 107.5t-52.5 89t-82 60.5t-107 22t-107 -22t-81.5 -60.5t-51.5 -89t-18 -107.5z" />
<glyph unicode="7" horiz-adv-x="1057" d="M49 1147v287h1004l-490 -1434h-307l403 1147h-610z" />
<glyph unicode="8" horiz-adv-x="1266" d="M72 410q0 56 15 109.5t43.5 100.5t68.5 86.5t90 67.5q-31 27 -55.5 62t-42 74t-26.5 80.5t-9 82.5q0 84 37.5 157.5t102.5 129t152 87.5t185 32q99 0 186 -32t152.5 -87.5t103 -129t37.5 -157.5q0 -41 -9.5 -82.5t-26.5 -81t-41.5 -74.5t-55.5 -63q49 -28 89 -67t68 -86 t43 -100t15 -109q0 -97 -44 -179t-120.5 -141.5t-178.5 -93t-218 -33.5t-218 33.5t-178.5 93t-120.5 141.5t-44 179zM358 418q0 -48 21.5 -88t59 -69t87.5 -45.5t107 -16.5t107.5 16.5t88 45.5t59 69t21.5 88t-21.5 89.5t-59 72.5t-88 49t-107.5 18t-107 -18t-87.5 -49 t-59 -72.5t-21.5 -89.5zM438 1042q0 -35 15.5 -65t42 -52t62.5 -35t77 -13q40 0 76 13t62.5 35t42 52t15.5 65t-15.5 65.5t-42 53.5t-62.5 36t-76 13q-41 0 -77 -13t-62.5 -36t-42 -53.5t-15.5 -65.5z" />
<glyph unicode="9" horiz-adv-x="1262" d="M70 907q0 116 41.5 219.5t114.5 181t173 122.5t217 45q118 0 221.5 -45t180.5 -122.5t121.5 -181t44.5 -219.5q0 -138 -27.5 -269.5t-79.5 -248.5t-127 -216t-170 -173h-387q61 39 118 87t108.5 103t95.5 116t78 126q-44 -29 -94 -49.5t-103 -20.5q-122 0 -219 40.5 t-165.5 113t-105 172.5t-36.5 219zM358 907q0 -57 18 -107.5t52 -88.5t81.5 -60t106.5 -22t107.5 22t82.5 60t52.5 88.5t18.5 107.5q0 55 -19 106t-53.5 90t-82.5 62t-106 23q-59 0 -106.5 -22.5t-81.5 -60.5t-52 -89t-18 -109z" />
<glyph unicode=":" horiz-adv-x="567" d="M113 102q0 35 13.5 66t37 54t54.5 36.5t67 13.5q35 0 66 -13.5t54 -36.5t36.5 -54t13.5 -66q0 -36 -13.5 -67.5t-36.5 -54.5t-54 -36.5t-66 -13.5q-36 0 -67 13.5t-54.5 36.5t-37 54.5t-13.5 67.5zM113 676q0 34 13.5 65t37 54.5t54.5 37t67 13.5q35 0 66 -13.5t54 -37 t36.5 -54.5t13.5 -65q0 -36 -13.5 -67.5t-36.5 -54.5t-54 -36.5t-66 -13.5q-36 0 -67 13.5t-54.5 36.5t-37 54.5t-13.5 67.5z" />
<glyph unicode=";" horiz-adv-x="567" d="M113 102q0 35 13.5 66t36.5 54t54 36.5t66 13.5q36 0 67.5 -13.5t54.5 -36.5t36.5 -54t13.5 -66q0 -44 -8.5 -94.5t-27 -100t-48.5 -94t-72 -75.5l-109 76q28 32 42 60.5t22 57.5q-30 6 -56 21t-44.5 37.5t-29.5 51t-11 60.5zM113 676q0 34 13.5 65t37 54.5t54.5 37 t67 13.5q35 0 66 -13.5t54 -37t36.5 -54.5t13.5 -65q0 -36 -13.5 -67.5t-36.5 -54.5t-54 -36.5t-66 -13.5q-36 0 -67 13.5t-54.5 36.5t-37 54.5t-13.5 67.5z" />
<glyph unicode="&#x3c;" horiz-adv-x="979" d="M61 768l603 627l215 -203l-410 -412l408 -370l-199 -222z" />
<glyph unicode="=" horiz-adv-x="1104" d="M131 383v272h840v-272h-840zM131 793v272h840v-272h-840z" />
<glyph unicode="&#x3e;" horiz-adv-x="979" d="M100 1192l215 203l603 -627l-617 -580l-199 222l408 370z" />
<glyph unicode="?" horiz-adv-x="1235" d="M80 1147v287h657q89 0 167.5 -34t137 -92.5t92 -136.5t33.5 -167t-33.5 -167.5t-92 -137t-137 -92.5t-167.5 -34q-31 0 -54.5 -11t-39 -30.5t-23.5 -45.5t-8 -56v-76h-286v80q1 88 31.5 166t85 135.5t129.5 91t165 33.5q30 0 56 11t45.5 30.5t31 46t11.5 56.5t-11.5 56 t-31 45.5t-45.5 30.5t-56 11h-657zM299 102q0 35 13.5 66t37 54t55 36.5t66.5 13.5t66 -13.5t54 -36.5t36.5 -54t13.5 -66q0 -36 -13.5 -67.5t-36.5 -54.5t-54 -36.5t-66 -13.5t-66.5 13.5t-55 36.5t-37 54.5t-13.5 67.5z" />
<glyph unicode="@" horiz-adv-x="1290" d="M78 532q0 124 43.5 229.5t120 182t181.5 119.5t228 43q122 0 227 -43.5t181.5 -120.5t120 -182t43.5 -228q0 -66 -15.5 -124t-50.5 -127h-442v16q-23 -12 -45 -16.5t-37 -4.5q-57 0 -103.5 18.5t-79.5 52.5t-51 80.5t-18 102.5q0 57 17.5 104t50.5 81t79.5 52.5 t104.5 18.5q15 0 37 -4.5t45 -15.5v45h186v-367h121q6 23 8 44t2 44q0 79 -30 149t-82 122t-121.5 82t-147.5 30q-79 0 -148.5 -30t-121 -82t-81.5 -122t-30 -149q0 -78 30 -147t81.5 -121t121 -82t148.5 -30q23 0 49.5 3.5t63.5 14.5l45 -186q-48 -13 -85.5 -18t-72.5 -5 q-116 0 -220 46t-182.5 124.5t-124.5 182t-46 218.5zM565 530q0 -34 20.5 -53.5t55.5 -19.5q34 0 54 19.5t20 53.5q0 36 -20 56t-54 20q-35 0 -55.5 -20t-20.5 -56z" />
<glyph unicode="A" d="M117 0v860q0 119 45 223.5t122.5 182.5t182 123t223.5 45t223.5 -45t182.5 -123t123 -182.5t45 -223.5v-860h-287v287h-574v-287h-286zM403 573h574v287q0 59 -22.5 111.5t-61.5 91.5t-91.5 61.5t-111.5 22.5t-111.5 -22.5t-91.5 -61.5t-61.5 -91.5t-22.5 -111.5v-287z " />
<glyph unicode="B" horiz-adv-x="1364" d="M133 0v1434h717q89 0 167 -34t136.5 -92.5t92.5 -136.5t34 -167q0 -40 -11 -82t-31 -81t-48 -71t-62 -53q35 -19 63 -51.5t48 -71.5t30.5 -81.5t10.5 -82.5q0 -89 -34 -167t-92.5 -136.5t-136.5 -92.5t-167 -34h-717zM420 287h430q30 0 56 11t45.5 30.5t30.5 45.5t11 56 t-11 56t-30.5 45.5t-45.5 30.5t-56 11h-430v-286zM420 860h430q30 0 56 11t45.5 30.5t30.5 46t11 56.5t-11 56t-30.5 45.5t-45.5 30.5t-56 11h-430v-287z" />
<glyph unicode="C" horiz-adv-x="1311" d="M55 711q0 102 26.5 197t75 177.5t116.5 150.5t150.5 116.5t177 75t196.5 26.5q133 0 257 -45.5t224 -132.5l-152 -250q-63 68 -149 104.5t-180 36.5q-95 0 -178 -36t-145 -97.5t-98 -145t-36 -177.5t36 -176.5t98 -144.5t145 -98t178 -36q94 0 180 36.5t149 104.5 l152 -250q-100 -86 -224 -132t-257 -46q-102 0 -196.5 26.5t-177 75t-150.5 116.5t-116.5 150.5t-75 177t-26.5 196.5z" />
<glyph unicode="D" horiz-adv-x="1339" d="M133 0v1434h432q99 0 190.5 -25.5t171.5 -72.5t145 -112.5t112 -145t72.5 -171t25.5 -190.5t-25.5 -190.5t-72.5 -171t-112 -145t-145 -112.5t-171.5 -72.5t-190.5 -25.5h-432zM422 287h143q89 0 167.5 33.5t137 92t92 137t33.5 167.5t-33.5 167t-92 136.5t-137 92.5 t-167.5 34h-143v-860z" />
<glyph unicode="E" horiz-adv-x="1184" d="M133 0v1434h983v-287h-696v-287h471v-287h-471v-286h696v-287h-983z" />
<glyph unicode="F" horiz-adv-x="1151" d="M133 0v1434h1004v-287h-717v-287h430v-287h-430v-573h-287z" />
<glyph unicode="G" horiz-adv-x="1362" d="M55 711q0 102 26.5 196t74.5 176.5t116 150t150 115.5t176.5 74.5t196.5 26.5q133 0 256 -45.5t223 -130.5l-150 -250q-65 66 -150 103.5t-179 37.5t-176.5 -36t-144.5 -97.5t-98 -144t-36 -176.5q0 -95 36 -178t98 -145t144.5 -98t176.5 -36q54 0 105 13t97 36v408h277 v-566q-100 -85 -223 -130.5t-256 -45.5q-102 0 -196.5 26.5t-176.5 75t-150 116t-116 150t-74.5 177.5t-26.5 197z" />
<glyph unicode="H" horiz-adv-x="1413" d="M133 0v1434h287v-574h573v574h287v-1434h-287v573h-573v-573h-287z" />
<glyph unicode="I" horiz-adv-x="553" d="M133 0v1434h287v-1434h-287z" />
<glyph unicode="J" horiz-adv-x="854" d="M20 18v308q32 -19 69 -29t75 -10q59 0 111.5 22.5t91.5 61.5t61.5 91t22.5 111v861h286v-861q0 -119 -45 -223.5t-122.5 -182t-182 -122.5t-223.5 -45q-72 0 -144 18z" />
<glyph unicode="K" horiz-adv-x="1280" d="M133 0v1434h287v-717l534 717h326l-453 -605l453 -829h-326l-315 580l-219 -293v-287h-287z" />
<glyph unicode="L" horiz-adv-x="1153" d="M133 0v1434h287v-1147h717v-287h-1004z" />
<glyph unicode="M" horiz-adv-x="1679" d="M123 0v1024q0 89 33.5 167.5t92 137t137 92t167.5 33.5q80 0 154 -28.5t133 -82.5q59 54 132.5 82.5t153.5 28.5q89 0 167.5 -33.5t137 -92t92 -137t33.5 -167.5v-1024h-286v1024q0 30 -11.5 56t-31 45.5t-45.5 30.5t-56 11t-56 -11t-45.5 -30.5t-30.5 -45.5t-11 -56 v-1024h-287v1024q0 30 -11 56t-30.5 45.5t-45.5 30.5t-56 11t-56 -11t-45.5 -30.5t-30.5 -45.5t-11 -56v-1024h-287z" />
<glyph unicode="N" horiz-adv-x="1413" d="M133 0v1434h307l553 -945v945h287v-1434h-307l-553 944v-944h-287z" />
<glyph unicode="O" horiz-adv-x="1593" d="M55 711q0 102 26.5 197t75 177t116.5 150t150.5 116t177 74.5t196.5 26.5t197 -26.5t177 -74.5t150 -116t116 -150t74.5 -177t26.5 -197t-26.5 -196.5t-74.5 -177t-116 -150.5t-150 -116.5t-177 -75t-197 -26.5t-196.5 26.5t-177 75t-150.5 116.5t-116.5 150.5t-75 177 t-26.5 196.5zM340 711q0 -94 36 -176.5t98 -144.5t145 -98t178 -36q94 0 177.5 36t145 98t97.5 144.5t36 176.5t-36 177.5t-97.5 145t-145 97.5t-177.5 36q-95 0 -178 -36t-145 -97.5t-98 -145t-36 -177.5z" />
<glyph unicode="P" horiz-adv-x="1315" d="M133 0v1434h574q79 0 152 -20.5t136.5 -58t116 -90t90 -116.5t58 -137t20.5 -152q0 -118 -45 -222.5t-123 -182.5t-182.5 -123t-222.5 -45h-287v-287h-287zM420 573h287q59 0 111 22.5t91 61.5t61.5 91.5t22.5 111.5t-22.5 111.5t-61.5 91.5t-91 61.5t-111 22.5h-287 v-574z" />
<glyph unicode="Q" horiz-adv-x="1593" d="M55 711q0 102 26.5 197t75 177t116.5 150t150.5 116t177 74.5t196.5 26.5t197 -26.5t177 -74.5t150 -116t116 -150t74.5 -177t26.5 -197q0 -106 -29.5 -206t-83.5 -186.5t-130.5 -156.5t-170.5 -117l222 -332h-326l-172 258q-14 -2 -26.5 -2h-24.5q-102 0 -196.5 26.5 t-177 75t-150.5 116.5t-116.5 150.5t-75 177t-26.5 196.5zM340 711q0 -94 36 -176.5t98 -144.5t145 -98t178 -36q94 0 177.5 36t145 98t97.5 144.5t36 176.5t-36 177.5t-97.5 145t-145 97.5t-177.5 36q-95 0 -178 -36t-145 -97.5t-98 -145t-36 -177.5z" />
<glyph unicode="R" horiz-adv-x="1335" d="M133 0v1434h574q79 0 152 -20.5t136.5 -58t116 -90t90 -116.5t58 -137t20.5 -152q0 -74 -18.5 -144t-53 -133t-84.5 -116t-112 -92l159 -375h-305l-125 289l-321 -2v-287h-287zM420 573h287q59 0 111 22.5t91 61.5t61.5 91.5t22.5 111.5t-22.5 111.5t-61.5 91.5t-91 61.5 t-111 22.5h-287v-574z" />
<glyph unicode="S" horiz-adv-x="1251" d="M49 1004q0 89 34 167t92.5 136.5t136.5 92.5t167 34h658v-287h-658q-30 0 -56 -11t-45.5 -30.5t-30.5 -45.5t-11 -56t11 -56.5t30.5 -46t45.5 -30.5t56 -11h287q89 0 167.5 -33.5t137 -92t92 -137t33.5 -167.5t-33.5 -167t-92 -136.5t-137 -92.5t-167.5 -34h-637v287h637 q30 0 56 11t45.5 30.5t30.5 45.5t11 56t-11 56t-30.5 45.5t-45.5 30.5t-56 11h-287q-89 0 -167 34t-136.5 92.5t-92.5 137t-34 167.5z" />
<glyph unicode="T" horiz-adv-x="1184" d="M18 1147v287h1147v-287h-430v-1147h-286v1147h-431z" />
<glyph unicode="U" d="M117 573v861h286v-861q0 -59 22.5 -111t61.5 -91t91.5 -61.5t111.5 -22.5t111.5 22.5t91.5 61.5t61.5 91t22.5 111v861h287v-861q0 -119 -45 -223.5t-123 -182t-182.5 -122.5t-223.5 -45t-223.5 45t-182 122.5t-122.5 182t-45 223.5z" />
<glyph unicode="V" horiz-adv-x="1233" d="M2 1434h326l286 -957l287 957h328l-471 -1434h-287z" />
<glyph unicode="W" horiz-adv-x="1679" d="M123 410v1024h287v-1024q0 -30 11 -56.5t30.5 -46t45.5 -30.5t56 -11t56 11t45.5 30.5t30.5 46t11 56.5v1024h287v-1024q0 -30 11 -56.5t30.5 -46t45.5 -30.5t56 -11t56 11t45.5 30.5t31 46t11.5 56.5v1024h286v-1024q0 -89 -33.5 -167.5t-92 -137t-137 -92t-167.5 -33.5 q-80 0 -153.5 28t-132.5 82q-59 -54 -133 -82t-154 -28q-89 0 -167.5 33.5t-137 92t-92 137t-33.5 167.5z" />
<glyph unicode="X" horiz-adv-x="1247" d="M0 0l440 717l-440 717h346l277 -463l276 463h348l-440 -717l440 -717h-348l-276 463l-277 -463h-346z" />
<glyph unicode="Y" horiz-adv-x="1270" d="M61 1004v430h287v-430q0 -59 22.5 -111.5t61.5 -91.5t91.5 -61.5t111.5 -22.5t111.5 22.5t91.5 61.5t61.5 91.5t22.5 111.5v430h286v-430q0 -99 -31.5 -188.5t-88.5 -163t-136 -126.5t-174 -77v-449h-286v449q-95 24 -174.5 77t-136.5 126.5t-88.5 163t-31.5 188.5z" />
<glyph unicode="Z" horiz-adv-x="1202" d="M47 0l612 1147h-612v287h1110l-610 -1147h610v-287h-1110z" />
<glyph unicode="[" horiz-adv-x="780" d="M129 -205v1843h576v-286h-287v-1270h287v-287h-576z" />
<glyph unicode="\" horiz-adv-x="1004" d="M57 1434h295l594 -1434h-295z" />
<glyph unicode="]" horiz-adv-x="780" d="M76 82h286v1270h-286v286h575v-1843h-575v287z" />
<glyph unicode="^" horiz-adv-x="602" d="M0 1155l297 281l305 -281l-125 -158l-176 160l-166 -156z" />
<glyph unicode="_" horiz-adv-x="1225" d="M193 -205h839v-272h-839v272z" />
<glyph unicode="`" horiz-adv-x="461" d="M0 1223l166 209l295 -277l-111 -149z" />
<glyph unicode="a" horiz-adv-x="1245" d="M47 545q0 125 43 229.5t117.5 179.5t174 116.5t212.5 41.5q52 0 103 -13t99 -36t91.5 -54t81.5 -67l106 127h66v-1069h-66l-106 147q-39 -35 -82.5 -65.5t-91.5 -53t-98.5 -35.5t-102.5 -13q-113 0 -212.5 38t-174 110.5t-117.5 177.5t-43 239zM324 545q0 -70 21 -124.5 t57.5 -91.5t86 -56t105.5 -19t105.5 24.5t86.5 65t58.5 93t21.5 108.5t-21.5 108.5t-58.5 93t-86.5 65t-105.5 24.5t-105.5 -19t-86 -56t-57.5 -91.5t-21 -124.5z" />
<glyph unicode="b" horiz-adv-x="1223" d="M82 545v952h274v-500q22 28 53.5 50t68 36t75.5 21.5t76 7.5q114 0 213.5 -42.5t173.5 -118.5t117 -179.5t43 -226.5q0 -126 -43 -230t-117 -178.5t-173.5 -115.5t-213.5 -41q-113 0 -212.5 42t-174 117t-117.5 178.5t-43 227.5zM358 545q0 -62 21 -115t58 -92 t86.5 -61.5t105.5 -22.5t105.5 22.5t86.5 61.5t58.5 92t21.5 115t-21.5 115.5t-58.5 92.5t-86.5 61t-105.5 22t-105.5 -24.5t-86.5 -65t-58 -93t-21 -108.5z" />
<glyph unicode="c" horiz-adv-x="1069" d="M45 524q0 123 43 230t117.5 186.5t174 125.5t212.5 46q67 0 131.5 -17t123 -49.5t108 -79.5t85.5 -108l-200 -201q-15 42 -41 75.5t-58.5 56.5t-70.5 35t-78 12q-56 0 -105.5 -23t-86 -64.5t-57.5 -98.5t-21 -126q0 -56 21 -105t57.5 -86t86 -58t105.5 -21q40 0 77 11 t69.5 31.5t58 50t41.5 65.5l200 -201q-38 -54 -87.5 -97t-107 -73t-121 -45.5t-130.5 -15.5q-113 0 -212.5 42.5t-174 116.5t-117.5 173t-43 212z" />
<glyph unicode="d" horiz-adv-x="1243" d="M45 545q0 121 43 225t117.5 180t174 119t212.5 43q36 0 74.5 -6t75 -19.5t68.5 -35.5t54 -54v500h275v-1497h-66l-106 147q-39 -35 -82.5 -65.5t-91.5 -53t-98.5 -35.5t-102.5 -13q-113 0 -212.5 42.5t-174 118t-117.5 179t-43 225.5zM322 545q0 -59 21 -112t57.5 -93 t86 -63t105.5 -23t105.5 24.5t86.5 65t58.5 93t21.5 108.5t-21.5 108.5t-58.5 93t-86.5 65t-105.5 24.5t-105.5 -20t-86 -57.5t-57.5 -91.5t-21 -122z" />
<glyph unicode="e" horiz-adv-x="1075" d="M47 545q0 127 43 232t117.5 179t174 115t212.5 41q67 0 131 -16t121.5 -46t107.5 -73.5t88 -97.5l-512 -617q16 -5 32 -6.5t32 -1.5q40 0 77 11t69.5 31.5t58 50t41.5 65.5l200 -201q-38 -54 -87.5 -97t-107 -73t-121 -45.5t-130.5 -15.5q-113 0 -212.5 42t-174 117 t-117.5 178.5t-43 227.5zM324 545q0 -15 1.5 -34t5 -38.5t8.5 -37.5t13 -32l318 422q-19 7 -37.5 9t-38.5 2q-56 0 -105.5 -20.5t-86 -58.5t-57.5 -91.5t-21 -120.5z" />
<glyph unicode="f" horiz-adv-x="811" d="M45 799v272h133v51q0 99 37.5 186t103 151.5t152.5 102t186 37.5h205v-272h-205q-44 0 -81.5 -15.5t-65 -43t-43.5 -65t-16 -81.5v-51h335v-272h-335v-799h-273v799h-133z" />
<glyph unicode="g" horiz-adv-x="1245" d="M47 545q0 121 43 225t117.5 180t174 119t212.5 43q52 0 103 -13t99 -36t91.5 -54t81.5 -67l106 127h66v-934q0 -113 -43 -212t-117.5 -173t-174 -117t-212.5 -43l-137 2v273l135 -2q64 0 109 16.5t76 45t49.5 65.5t29.5 78q-16 -26 -46 -42.5t-66.5 -27t-76 -14.5 t-73.5 -4q-113 0 -212.5 39t-174 111.5t-117.5 177.5t-43 237zM324 545q0 -67 21 -120.5t57.5 -91.5t86 -58.5t105.5 -20.5t105.5 24.5t86.5 65t58.5 93t21.5 108.5t-21.5 108.5t-58.5 93t-86.5 65t-105.5 24.5t-105.5 -19t-86 -56t-57.5 -91.5t-21 -124.5z" />
<glyph unicode="h" horiz-adv-x="1151" d="M104 0v1497h273v-473q49 37 101 52.5t106 15.5q99 0 186 -37.5t151.5 -103t102 -153t37.5 -186.5v-612h-275v612h2q0 42 -16 79.5t-44 65.5t-65 44t-79 16q-43 0 -81 -16t-66 -44t-44 -65.5t-16 -79.5v-612h-273z" />
<glyph unicode="i" horiz-adv-x="483" d="M59 1362q0 37 14.5 70.5t39 58t58 39t71.5 14.5t71.5 -14.5t58.5 -39t39.5 -58t14.5 -70.5q0 -38 -14.5 -71t-39.5 -57.5t-58.5 -39t-71.5 -14.5t-71.5 14.5t-58 39t-39 57.5t-14.5 71zM104 0v1071h275v-1071h-275z" />
<glyph unicode="j" horiz-adv-x="487" d="M-303 -133l151 -2q55 0 102 22.5t81.5 60t54.5 86.5t20 103v934h279v-934h-2q-1 -75 -20.5 -145t-55.5 -130.5t-86 -110t-110.5 -85t-130 -55t-144.5 -19.5h-139v275zM63 1362q0 37 14.5 70.5t39.5 58t58.5 39t72.5 14.5q37 0 70.5 -14.5t58 -39t39 -58t14.5 -70.5 q0 -38 -14.5 -71t-39 -57.5t-58 -39t-70.5 -14.5q-39 0 -72.5 14.5t-58.5 39t-39.5 57.5t-14.5 71z" />
<glyph unicode="k" horiz-adv-x="1104" d="M104 0v1497h275v-944l407 516h314l-355 -446l355 -623h-314l-217 389l-190 -252v-137h-275z" />
<glyph unicode="l" horiz-adv-x="483" d="M104 0v1497h275v-1497h-275z" />
<glyph unicode="m" horiz-adv-x="1561" d="M104 0v1071h66l74 -82q57 48 125.5 74.5t142.5 26.5q75 0 146.5 -28t125.5 -97q25 34 57 58t67.5 39t73.5 21.5t75 6.5q85 0 159.5 -32t130 -87.5t87.5 -130.5t32 -160v-680h-272v680q0 28 -10.5 53t-29.5 44t-44 29.5t-53 10.5t-52.5 -10.5t-43 -29.5t-29 -44t-10.5 -53 v-680h-273v680q0 28 -10.5 53t-29.5 44t-44 29.5t-53 10.5t-52.5 -10.5t-43 -29.5t-29 -44t-10.5 -53v-680h-273z" />
<glyph unicode="n" horiz-adv-x="1151" d="M104 0v1071h66l90 -104q66 60 149.5 92.5t174.5 32.5q98 0 185 -37.5t152 -103t102.5 -153t37.5 -186.5v-612h-273v612q0 42 -16 79.5t-44 65.5t-65 44t-79 16q-43 0 -81 -16t-66 -44t-44 -65.5t-16 -79.5v-612h-273z" />
<glyph unicode="o" horiz-adv-x="1186" d="M45 545q0 122 43 226t117.5 179.5t174 118.5t212.5 43q114 0 213.5 -40.5t173.5 -115t117 -179t43 -232.5q0 -120 -43 -223.5t-117 -179t-173.5 -119t-213.5 -43.5q-113 0 -212.5 43.5t-174 119t-117.5 179t-43 223.5zM322 545q0 -62 21 -115t57.5 -92t86 -61.5 t105.5 -22.5t105.5 21t86.5 59t58.5 92t21.5 119q0 66 -21.5 119.5t-58.5 92t-86.5 59t-105.5 20.5t-105.5 -20.5t-86 -59t-57.5 -92t-21 -119.5z" />
<glyph unicode="p" horiz-adv-x="1247" d="M104 -408v1479h66l109 -129q37 35 81 66t91.5 53.5t98.5 35.5t103 13q113 0 212.5 -40.5t174 -114.5t117.5 -178.5t43 -231.5q0 -132 -43 -237.5t-117.5 -179t-174 -112.5t-212.5 -39q-36 0 -71.5 8t-70 21.5t-68 30.5t-64.5 35v-480h-275zM381 545q0 -65 21.5 -119 t58.5 -92t86.5 -59t105.5 -21t106 21t87 59t58.5 92t21.5 119q0 68 -21.5 122t-58.5 91.5t-87 57.5t-106 20t-105.5 -20t-86.5 -57.5t-58.5 -91.5t-21.5 -122z" />
<glyph unicode="q" horiz-adv-x="1245" d="M47 545q0 127 43 231.5t117.5 178.5t174 114.5t212.5 40.5q52 0 102.5 -13t98.5 -35.5t91.5 -53.5t82.5 -66l106 127h66v-1477h-275v480q-31 -18 -63.5 -35t-67 -30.5t-70 -21.5t-71.5 -8q-113 0 -212.5 41.5t-174 116.5t-117.5 179.5t-43 230.5zM324 545 q0 -69 21 -123.5t57.5 -91.5t86 -56.5t105.5 -19.5t105.5 24.5t86.5 65t58.5 93t21.5 108.5t-21.5 108.5t-58.5 93t-86.5 65t-105.5 24.5t-105.5 -20.5t-86 -58.5t-57.5 -91.5t-21 -120.5z" />
<glyph unicode="r" horiz-adv-x="848" d="M104 0v1071h66l90 -127q66 60 150 92.5t174 32.5h241v-272h-241q-43 0 -81 -16t-66 -44t-44 -66t-16 -81v-590h-273z" />
<glyph unicode="s" horiz-adv-x="1073" d="M68 0v272h624q28 0 48 20t20 48q0 29 -20 38t-48 9h-284q-71 0 -133 27t-108 73.5t-72.5 108.5t-26.5 133t26.5 133t72.5 108t108 72.5t133 26.5h553v-272h-553q-28 0 -48 -20t-20 -48q0 -29 20 -49.5t48 -20.5h284q70 0 132 -23.5t108 -65.5t73 -101t27 -129 q0 -71 -27 -132.5t-73 -108t-108 -73t-132 -26.5h-624z" />
<glyph unicode="t" horiz-adv-x="897" d="M29 797v272h133v428h272v-428h414v-272h-414v-318q0 -43 16 -80.5t44 -65.5t66 -44.5t81 -16.5h207v-272h-207q-99 0 -186 37.5t-152.5 103t-103 152.5t-37.5 186v318h-133z" />
<glyph unicode="u" horiz-adv-x="1151" d="M90 479v592h272v-592q0 -54 16.5 -96.5t44.5 -71.5t65.5 -44t80.5 -15q42 0 79.5 19.5t65.5 51.5t44 72.5t16 83.5v592h273v-1071h-66l-90 125q-33 -30 -70.5 -56.5t-78.5 -46t-84.5 -31t-88.5 -11.5q-99 0 -186 35t-152.5 99.5t-103 157t-37.5 207.5z" />
<glyph unicode="v" horiz-adv-x="1090" d="M0 1071h311l234 -668l233 668h312l-408 -1071h-274z" />
<glyph unicode="w" horiz-adv-x="1550" d="M94 387v682h273v-682q0 -28 10.5 -52.5t29 -43t43 -29t52.5 -10.5t53 10.5t44 29t29.5 43t10.5 52.5v682h272v-682q0 -28 11 -52.5t29.5 -43t43 -29t52.5 -10.5t53 10.5t43.5 29t29.5 43t11 52.5v682h272v-682q0 -84 -32 -158.5t-87.5 -129.5t-130 -87t-159.5 -32 q-76 0 -146 26.5t-127 77.5q-56 -51 -125.5 -77.5t-146.5 -26.5q-85 0 -159 32t-129.5 87t-87.5 129.5t-32 158.5z" />
<glyph unicode="x" horiz-adv-x="1083" d="M-6 0l391 549l-391 528h334l215 -307l213 307h334l-392 -528l392 -549h-334l-213 328l-215 -328h-334z" />
<glyph unicode="y" horiz-adv-x="1153" d="M90 479v592h272v-592q0 -57 16.5 -99.5t44.5 -71t65.5 -42.5t80.5 -14q42 0 79.5 19.5t65.5 51.5t44 72.5t16 83.5v592h275v-936q-1 -113 -44 -212t-117.5 -173t-173.5 -117t-212 -43l-140 2v275l152 -2q40 0 77 13t68.5 36t55.5 54.5t39 68.5q-45 -19 -91.5 -38 t-93.5 -19q-99 0 -186 35t-152.5 99.5t-103 157t-37.5 207.5z" />
<glyph unicode="z" horiz-adv-x="987" d="M47 0l451 797h-451v272h893l-451 -797h451v-272h-893z" />
<glyph unicode="{" horiz-adv-x="956" d="M39 586v286h151q43 0 66.5 19.5t34.5 43.5q12 28 14 64v353q0 61 23 113.5t62.5 91t92 60t111.5 21.5h287v-286h-287v-359q0 -37 -7 -68t-19 -56.5t-27 -46t-31 -35.5q-37 -37 -84 -58q47 -20 84 -59q16 -17 31 -39t27 -50.5t19 -64t7 -78.5v-356h287v-287h-287 q-56 0 -108.5 22t-92.5 60.5t-64 91t-24 113.5v356q1 55 -16.5 85t-39.5 44q-26 16 -59 19h-151z" />
<glyph unicode="|" horiz-adv-x="547" d="M129 -205v1843h289v-1843h-289z" />
<glyph unicode="}" horiz-adv-x="956" d="M76 82h286v356q0 43 7 78.5t19 64t27 50.5t31 39q37 39 84 59q-47 21 -84 58q-16 15 -31 35.5t-27 46t-19 56.5t-7 68v359h-286v286h286q59 0 111.5 -21.5t92 -60t62.5 -91t23 -113.5v-353q2 -36 14 -64q11 -24 34 -43.5t67 -19.5h152v-286h-152q-33 -3 -59 -19 q-11 -7 -21.5 -17.5t-18.5 -26t-12.5 -36.5t-3.5 -49v-356q0 -61 -24 -113.5t-64 -91t-92.5 -60.5t-108.5 -22h-286v287z" />
<glyph unicode="~" horiz-adv-x="924" d="M102 731q0 48 15.5 87t44.5 66t70 41.5t92 14.5q42 0 72.5 -10.5t53 -25.5t39 -33.5t30.5 -33.5t27.5 -25.5t31.5 -10.5t28 16t10 41q0 16 -5 31t-13 29l205 28q7 -20 12 -43q5 -20 8.5 -45t3.5 -53q0 -56 -16 -99.5t-44.5 -74t-67 -46.5t-83.5 -16q-50 0 -85 22t-62 48 t-50 48t-50 22q-22 0 -34.5 -19.5t-12.5 -38.5q0 -21 7 -41.5t19 -40.5l-207 -8q-11 21 -20 47q-8 23 -13.5 54t-5.5 69z" />
<glyph unicode="&#xa1;" horiz-adv-x="563" d="M109 -289l61 1080h223l62 -1080h-346zM111 1042q0 36 13 67.5t36 55t54 36.5t67 13q35 0 66.5 -13t55 -36.5t37 -55t13.5 -67.5q0 -35 -13.5 -65.5t-37 -54t-55 -37t-66.5 -13.5q-36 0 -67 13.5t-54 37t-36 54t-13 65.5z" />
<glyph unicode="&#xa2;" horiz-adv-x="948" d="M80 727q0 85 26 161t72 136.5t109 102.5t137 59v250h184v-250q82 -19 152 -68t117 -125l-162 -159q-12 34 -32.5 60t-46.5 44t-56.5 27.5t-61.5 9.5q-45 0 -85 -18.5t-69 -51.5t-46 -78.5t-17 -99.5q0 -45 17 -85t46 -69t69 -46t85 -17q63 0 117 34t80 93l159 -162 q-49 -68 -117 -113.5t-149 -62.5v-299h-184v301q-74 16 -137 55t-109 95.5t-72 127t-26 148.5z" />
<glyph unicode="&#xa3;" horiz-adv-x="1395" d="M94 547v272h166v185q0 89 34 167t92.5 136.5t136.5 92.5t167 34h121v-287h-121q-30 0 -56 -11t-45.5 -30.5t-30.5 -45.5t-11 -56v-185h201v-272h-201v-260h350q30 0 56 11t45.5 30.5t30.5 45.5t11 56h287q0 -89 -33.5 -167t-92 -136.5t-137 -92.5t-167.5 -34h-637v547 h-166z" />
<glyph unicode="&#xa4;" horiz-adv-x="930" d="M51 973l131 131l117 -119q35 22 77 33.5t87 11.5q90 0 164 -41l121 121l131 -133l-125 -123q37 -72 37 -164q0 -86 -37 -160l118 -116l-131 -131l-112 112q-37 -21 -79 -33t-87 -12q-47 0 -89 12t-79 33l-109 -108l-129 131l113 114q-35 73 -35 158q0 44 9 84.5t28 75.5z M301 690q0 -37 12.5 -69t34.5 -56t51.5 -37.5t63.5 -13.5t63.5 13t52 36t35.5 55.5t13 71.5t-13 71.5t-35.5 55t-52 35t-63.5 12.5t-63.5 -12.5t-51.5 -35t-34.5 -55t-12.5 -71.5z" />
<glyph unicode="&#xa5;" horiz-adv-x="1339" d="M96 1004v430h287v-430q0 -59 22.5 -111.5t61.5 -91.5t91.5 -61.5t111.5 -22.5t111 22.5t91 61.5t61.5 91.5t22.5 111.5v430h287v-430q0 -72 -19.5 -144.5t-56.5 -136t-90.5 -113.5t-122.5 -78h238v-272h-379v-260h-287v260h-379v272h236q-71 34 -125 85t-90 113t-54 132 t-18 142z" />
<glyph unicode="&#xa6;" horiz-adv-x="551" d="M131 -205v819h289v-819h-289zM131 819v819h289v-819h-289z" />
<glyph unicode="&#xa7;" horiz-adv-x="1167" d="M111 -2v272h624q28 0 48 13t20 41q0 29 -20 40t-48 11h-284q-71 0 -133 27t-108 73.5t-72.5 108.5t-26.5 133q0 56 16 105t45 91q-29 39 -45 87t-16 104q0 70 27 130.5t73 105t108 69.5t132 25h542v-273h-542q-28 0 -48 -13.5t-20 -41.5q0 -26 15 -36.5t38 -12.5h299 q71 0 133 -27t108 -73.5t72.5 -109t26.5 -132.5q0 -56 -17 -105.5t-46 -91.5q63 -81 63 -190q0 -71 -27 -131.5t-73 -104.5t-108 -69t-132 -25h-624zM383 717q0 -29 20 -49.5t48 -20.5h284q28 0 48 20t20 48q0 13 -4.5 25.5t-13 22t-19.5 15.5t-23 6h-301q-24 0 -41.5 -21 t-17.5 -46z" />
<glyph unicode="&#xa8;" horiz-adv-x="616" d="M0 1212q0 26 10.5 49t28 40.5t41 27.5t49.5 10t49 -10t40.5 -27.5t27.5 -40.5t10 -49q0 -27 -10 -50.5t-27.5 -41t-40.5 -27.5t-49 -10t-49.5 10t-41 27.5t-28 41t-10.5 50.5zM367 1210q0 25 10 48t27 40t40.5 27t49.5 10q25 0 47.5 -10t39 -27t26 -40t9.5 -48 q0 -26 -9.5 -49t-26 -40.5t-39 -27.5t-47.5 -10q-26 0 -49.5 10t-40.5 27.5t-27 40.5t-10 49z" />
<glyph unicode="&#xa9;" horiz-adv-x="1343" d="M90 717q0 120 46 226t125 185t185 124.5t226 45.5t226 -45.5t185 -124.5t124.5 -185t45.5 -226t-45.5 -226t-124.5 -185t-185 -125t-226 -46t-226 46t-185 125t-125 185t-46 226zM233 715q0 -90 34.5 -169.5t94 -138.5t139.5 -93.5t171 -34.5q90 0 170 34.5t139.5 93.5 t94 138.5t34.5 169.5t-34.5 170t-94 139.5t-139.5 94t-170 34.5q-91 0 -171 -34.5t-139.5 -94t-94 -139.5t-34.5 -170zM319 711q0 73 28 138t76.5 113.5t113.5 76.5t139 28q63 0 122 -22t107 -62l-71 -121q-31 32 -72 50t-86 18q-46 0 -86.5 -17.5t-70.5 -47t-47 -69.5 t-17 -85t17 -85t47 -70t70.5 -47t86.5 -17q45 0 86 17.5t72 49.5l71 -119q-48 -42 -107 -64t-122 -22q-74 0 -139 28.5t-113.5 77t-76.5 113.5t-28 138z" />
<glyph unicode="&#xaa;" horiz-adv-x="924" d="M117 485v160h657v-160h-657zM117 1120q0 75 26 137.5t70 107.5t103.5 70t127.5 25q63 0 122 -29.5t104 -72.5l63 76h39v-641h-39l-63 88q-47 -42 -105 -71.5t-121 -29.5q-68 0 -127.5 23t-103.5 66.5t-70 106.5t-26 144zM283 1120q0 -42 12.5 -75t34 -55.5t51 -34 t63.5 -11.5t64 15t52 39.5t35 56t13 65.5q0 33 -13 64.5t-35 55.5t-52 39t-64 15t-63.5 -11.5t-51 -33.5t-34 -54.5t-12.5 -74.5z" />
<glyph unicode="&#xab;" horiz-adv-x="1442" d="M49 510l512 532l184 -172l-348 -350l346 -315l-170 -189zM664 510l512 532l184 -172l-348 -350l346 -315l-170 -189z" />
<glyph unicode="&#xac;" horiz-adv-x="1085" d="M121 588v272h840l-3 -473h-272v201h-565z" />
<glyph unicode="&#xad;" horiz-adv-x="858" d="M123 588v272h614v-272h-614z" />
<glyph unicode="&#xae;" horiz-adv-x="901" d="M78 1073q0 78 29.5 146t80 118.5t118.5 79.5t145 29t145 -29t118.5 -79.5t79.5 -118.5t29 -146q0 -77 -29 -145t-79.5 -118.5t-118.5 -80t-145 -29.5t-145 29.5t-118.5 80t-80 118.5t-29.5 145zM170 1071q0 -57 22 -107.5t60.5 -88.5t89.5 -60t109 -22q57 0 108 22 t89.5 60t60.5 88.5t22 107.5q0 58 -22 109.5t-60.5 89.5t-89.5 60t-108 22q-58 0 -109 -22t-89.5 -60t-60.5 -89.5t-22 -109.5zM293 854v438h176q36 0 68 -13.5t56 -37.5t38 -55.5t14 -67.5q0 -46 -22 -86t-60 -63l47 -115h-90l-41 88l-98 -2v-86h-88zM381 1028h88 q37 0 63.5 26.5t26.5 63.5q0 18 -7 34t-19.5 28t-29 19t-34.5 7h-88v-178z" />
<glyph unicode="&#xaf;" horiz-adv-x="506" d="M0 1096v211h506v-211h-506z" />
<glyph unicode="&#xb0;" horiz-adv-x="782" d="M74 1083q0 66 25 124t67.5 101t100.5 68t124 25q65 0 123 -25t101.5 -68t68.5 -101t25 -124q0 -65 -25 -123t-68.5 -101t-101.5 -68t-123 -25q-66 0 -124 25t-100.5 68t-67.5 101t-25 123zM285 1083q0 -21 8 -40t22.5 -33.5t33.5 -22.5t40 -8t40.5 8t33.5 22.5t22.5 33.5 t8.5 40q0 22 -8.5 41t-22.5 33t-33.5 22.5t-40.5 8.5t-40 -8.5t-33.5 -22.5t-22.5 -33t-8 -41z" />
<glyph unicode="&#xb1;" horiz-adv-x="1057" d="M109 2v272h839v-272h-839zM109 588v272h284v234h273v-234h282v-272h-282v-211h-273v211h-284z" />
<glyph unicode="&#xb2;" horiz-adv-x="729" d="M109 731v227q0 47 17.5 88t48 72t71.5 48.5t88 17.5h63q14 0 22.5 8t8.5 20q0 11 -8.5 19t-22.5 8h-260v197h260q48 0 90 -17.5t72.5 -47.5t48 -71t17.5 -88q0 -48 -17.5 -89.5t-48 -71.5t-72.5 -47t-90 -17h-63q-11 0 -20 -9t-9 -20v-30h303v-197h-499z" />
<glyph unicode="&#xb3;" horiz-adv-x="727" d="M117 729v197h289q14 0 22 8t8 22q0 11 -8 20t-22 9h-209v197h209q14 0 22 8t8 20q0 11 -8 19t-22 8h-289v197h289q48 0 89.5 -17.5t72 -47.5t48 -71t17.5 -88q0 -35 -8.5 -68t-30.5 -61q20 -29 29.5 -60t9.5 -65q0 -48 -17.5 -89.5t-48 -72t-72 -48t-89.5 -17.5h-289z " />
<glyph unicode="&#xb4;" horiz-adv-x="461" d="M0 1155l297 277l164 -209l-348 -217z" />
<glyph unicode="&#xb5;" horiz-adv-x="1171" d="M125 -451v1522h272v-592q0 -54 16 -96.5t44 -71.5t66 -44t81 -15q42 0 79.5 19.5t65.5 51.5t44 72.5t16 83.5v592h272v-1071h-65l-90 125q-33 -30 -70.5 -56.5t-78.5 -46t-84.5 -31t-88.5 -11.5q-65 0 -125 15t-112 44l-29 -490h-213z" />
<glyph unicode="&#xb6;" horiz-adv-x="1655" d="M78 860q0 79 20.5 152t58.5 137t91 116.5t118 90t140.5 58t157.5 20.5v2l845 -2v-1434h-286v1147h-244v-1147h-287v287h-41q-118 0 -222.5 45t-182.5 123t-123 182.5t-45 222.5zM365 860q0 -59 22.5 -111.5t61.5 -91.5t91 -61.5t111 -22.5h41v574h-41q-59 0 -111 -22.5 t-91 -61.5t-61.5 -91.5t-22.5 -111.5z" />
<glyph unicode="&#xb7;" horiz-adv-x="535" d="M96 717q0 34 13.5 65t37 54.5t55 37t66.5 13.5t66 -13.5t54 -37t36.5 -54.5t13.5 -65q0 -36 -13.5 -67.5t-36.5 -54.5t-54 -36.5t-66 -13.5t-66.5 13.5t-55 36.5t-37 54.5t-13.5 67.5z" />
<glyph unicode="&#xb8;" horiz-adv-x="426" d="M0 -379l55 150q23 -17 46 -29q20 -11 41 -20t38 -9q22 0 36.5 14t14.5 37q0 28 -21 40t-46 12q-32 0 -58 -17l93 258h123l-48 -135q31 -4 59 -18t48.5 -36.5t32.5 -53t12 -66.5q0 -50 -16.5 -89t-46.5 -65.5t-71.5 -40.5t-90.5 -14h-17q-36 2 -69 15t-59 28 q-30 18 -56 39z" />
<glyph unicode="&#xb9;" horiz-adv-x="475" d="M92 1239v197h258v-705h-196v508h-62z" />
<glyph unicode="&#xba;" horiz-adv-x="885" d="M115 485v160h657v-160h-657zM115 1120q0 73 26 135.5t70 108t103.5 71t127.5 25.5q69 0 128.5 -24.5t104 -69t70 -107t25.5 -139.5q0 -72 -25.5 -134t-70 -108t-104 -72t-128.5 -26q-68 0 -127.5 26t-103.5 72t-70 108t-26 134zM281 1120q0 -37 12.5 -69t34 -56t51 -37.5 t63.5 -13.5t63.5 13t52 36t35.5 55.5t13 71.5t-13 71.5t-35.5 55t-52 35t-63.5 12.5t-63.5 -12.5t-51 -35t-34 -55t-12.5 -71.5z" />
<glyph unicode="&#xbb;" horiz-adv-x="1440" d="M82 870l182 172l512 -532l-524 -494l-168 189l346 315zM696 870l183 172l512 -532l-525 -494l-168 189l346 315z" />
<glyph unicode="&#xbc;" horiz-adv-x="1329" d="M74 0l788 1434h217l-788 -1434h-217zM147 1239v197h259v-705h-197v508h-62zM670 127l80 578h200l-59 -379h102v315h197v-315h63v-199h-63v-127h-197v127h-323z" />
<glyph unicode="&#xbd;" horiz-adv-x="1305" d="M74 0l788 1434h217l-788 -1434h-217zM147 1239v197h259v-705h-197v508h-62zM713 0v227q0 47 17.5 88t48 72t71.5 48.5t88 17.5h63q14 0 22.5 8t8.5 20q0 11 -8.5 19t-22.5 8h-260v197h260q48 0 90 -17.5t72.5 -47.5t48 -71t17.5 -88q0 -48 -17.5 -89.5t-48 -71.5 t-72.5 -47t-90 -17h-63q-11 0 -20 -9t-9 -20v-30h303v-197h-499z" />
<glyph unicode="&#xbe;" horiz-adv-x="1452" d="M90 729v197h289q14 0 22.5 8t8.5 22q0 11 -8.5 20t-22.5 9h-209v197h209q14 0 22.5 8t8.5 20q0 11 -8.5 19t-22.5 8h-289v197h289q48 0 89.5 -17.5t72 -47.5t48 -71t17.5 -88q0 -35 -8.5 -68t-30.5 -61q20 -29 29.5 -60t9.5 -65q0 -48 -17.5 -89.5t-48 -72t-72 -48 t-89.5 -17.5h-289zM199 0l788 1434h217l-788 -1434h-217zM795 127l79 578h201l-59 -379h102v315h197v-315h63v-199h-63v-127h-197v127h-323z" />
<glyph unicode="&#xbf;" horiz-adv-x="1233" d="M68 141q0 89 33.5 167.5t92 137t137 92t167.5 33.5q31 0 54 11t39 30.5t24 46t8 56.5v76h286v-80q-1 -89 -31.5 -166.5t-85 -135t-129.5 -91t-165 -33.5q-30 0 -56.5 -11.5t-46 -31t-30.5 -45.5t-11 -56t11 -56t30.5 -45.5t46 -30.5t56.5 -11h657v-287h-657 q-89 0 -167.5 34t-137 92.5t-92 136.5t-33.5 167zM594 1042q0 36 13.5 67.5t36.5 55t54 36.5t66 13t66.5 -13t55 -36.5t37 -55t13.5 -67.5q0 -35 -13.5 -65.5t-37 -54t-55 -37t-66.5 -13.5t-66 13.5t-54 37t-36.5 54t-13.5 65.5z" />
<glyph unicode="&#xc0;" d="M117 0v860q0 119 45 223.5t122.5 182.5t182 123t223.5 45t223.5 -45t182.5 -123t123 -182.5t45 -223.5v-860h-287v287h-574v-287h-286zM328 1735l166 209l295 -277l-111 -149zM403 573h574v287q0 59 -22.5 111.5t-61.5 91.5t-91.5 61.5t-111.5 22.5t-111.5 -22.5 t-91.5 -61.5t-61.5 -91.5t-22.5 -111.5v-287z" />
<glyph unicode="&#xc1;" d="M117 0v860q0 119 45 223.5t122.5 182.5t182 123t223.5 45t223.5 -45t182.5 -123t123 -182.5t45 -223.5v-860h-287v287h-574v-287h-286zM403 573h574v287q0 59 -22.5 111.5t-61.5 91.5t-91.5 61.5t-111.5 22.5t-111.5 -22.5t-91.5 -61.5t-61.5 -91.5t-22.5 -111.5v-287z M580 1667l297 277l164 -209l-348 -217z" />
<glyph unicode="&#xc2;" d="M117 0v860q0 119 45 223.5t122.5 182.5t182 123t223.5 45t223.5 -45t182.5 -123t123 -182.5t45 -223.5v-860h-287v287h-574v-287h-286zM403 573h574v287q0 59 -22.5 111.5t-61.5 91.5t-91.5 61.5t-111.5 22.5t-111.5 -22.5t-91.5 -61.5t-61.5 -91.5t-22.5 -111.5v-287z M416 1640l270 254l277 -254l-113 -143l-160 146l-151 -142z" />
<glyph unicode="&#xc3;" d="M117 0v860q0 119 45 223.5t122.5 182.5t182 123t223.5 45t223.5 -45t182.5 -123t123 -182.5t45 -223.5v-860h-287v287h-574v-287h-286zM360 1653q0 89 54 139.5t147 50.5q39 0 66.5 -9.5t48 -23.5t35.5 -30.5t27.5 -30.5t25 -23.5t28.5 -9.5q17 0 26 15t9 38q0 27 -16 54 l186 26q6 -18 11 -39q4 -18 7.5 -41t3.5 -49q0 -50 -15 -89.5t-40.5 -67t-61 -42t-75.5 -14.5q-45 0 -77 19.5t-56.5 43t-46 43t-45.5 19.5q-19 0 -31 -17t-12 -34q0 -20 6.5 -38.5t17.5 -35.5l-188 -8q-10 18 -18 42q-7 20 -12 48.5t-5 63.5zM403 573h574v287 q0 59 -22.5 111.5t-61.5 91.5t-91.5 61.5t-111.5 22.5t-111.5 -22.5t-91.5 -61.5t-61.5 -91.5t-22.5 -111.5v-287z" />
<glyph unicode="&#xc4;" d="M117 0v860q0 119 45 223.5t122.5 182.5t182 123t223.5 45t223.5 -45t182.5 -123t123 -182.5t45 -223.5v-860h-287v287h-574v-287h-286zM381 1620q0 26 10.5 49t28 40.5t41 27.5t49.5 10t49 -10t40.5 -27.5t27.5 -40.5t10 -49q0 -27 -10 -50.5t-27.5 -41t-40.5 -27.5 t-49 -10t-49.5 10t-41 27.5t-28 41t-10.5 50.5zM403 573h574v287q0 59 -22.5 111.5t-61.5 91.5t-91.5 61.5t-111.5 22.5t-111.5 -22.5t-91.5 -61.5t-61.5 -91.5t-22.5 -111.5v-287zM748 1618q0 25 10 48t27 40t40.5 27t49.5 10q25 0 47.5 -10t39 -27t26 -40t9.5 -48 q0 -26 -9.5 -49t-26 -40.5t-39 -27.5t-47.5 -10q-26 0 -49.5 10t-40.5 27.5t-27 40.5t-10 49z" />
<glyph unicode="&#xc5;" d="M117 0v860q0 101 33 192.5t91.5 165t139.5 125.5t176 74q-31 28 -48 65.5t-17 82.5q0 40 15.5 76t42.5 63t62.5 43t75.5 16q42 0 78 -16t63 -43t42.5 -63t15.5 -76q0 -45 -17.5 -82.5t-48.5 -65.5q95 -22 176 -73.5t140.5 -125t93 -165t33.5 -193.5v-860h-287v287h-574 v-287h-286zM403 573h574v287q0 59 -22.5 111.5t-61.5 91.5t-91.5 61.5t-111.5 22.5t-111.5 -22.5t-91.5 -61.5t-61.5 -91.5t-22.5 -111.5v-287zM625 1565q0 -26 17.5 -45t45.5 -19t47 19t19 45q0 28 -19 47.5t-47 19.5t-45.5 -19.5t-17.5 -47.5z" />
<glyph unicode="&#xc6;" horiz-adv-x="2025" d="M117 0v860q0 119 45 223.5t122.5 182.5t182 123t223.5 45h1268v-287h-696l2 -287h469v-287h-469v-286h694v-287h-983v287h-572v-287h-286zM403 573h572v574h-285q-59 0 -111.5 -22.5t-91.5 -61.5t-61.5 -91.5t-22.5 -111.5v-287z" />
<glyph unicode="&#xc7;" horiz-adv-x="1311" d="M55 711q0 102 26.5 197t75 177.5t116.5 150.5t150.5 116.5t177 75t196.5 26.5q133 0 257 -45.5t224 -132.5l-152 -250q-63 68 -149 104.5t-180 36.5q-95 0 -178 -36t-145 -97.5t-98 -145t-36 -177.5t36 -176.5t98 -144.5t145 -98t178 -36q94 0 180 36.5t149 104.5 l152 -250q-100 -86 -224 -132t-257 -46q-14 0 -27 1t-27 1l-16 -49q31 -4 59 -18t48.5 -36.5t32.5 -53t12 -66.5q0 -50 -17 -89t-47 -65.5t-71.5 -40.5t-90.5 -14h-16q-36 2 -69 15t-59 28q-30 18 -56 39l55 150q23 -17 46 -29q20 -11 41 -20t38 -9q22 0 36.5 14t14.5 37 q0 28 -21.5 40t-46.5 12q-32 0 -57 -17l68 191q-123 28 -228 95t-181.5 162.5t-119.5 213.5t-43 250z" />
<glyph unicode="&#xc8;" horiz-adv-x="1184" d="M133 0v1434h983v-287h-696v-287h471v-287h-471v-286h696v-287h-983zM293 1733l166 209l295 -277l-111 -149z" />
<glyph unicode="&#xc9;" horiz-adv-x="1184" d="M133 0v1434h983v-287h-696v-287h471v-287h-471v-286h696v-287h-983zM522 1667l297 277l164 -209l-348 -217z" />
<glyph unicode="&#xca;" horiz-adv-x="1184" d="M133 0v1434h983v-287h-696v-287h471v-287h-471v-286h696v-287h-983zM350 1660l270 254l277 -254l-113 -143l-160 146l-151 -142z" />
<glyph unicode="&#xcb;" horiz-adv-x="1184" d="M133 0v1434h983v-287h-696v-287h471v-287h-471v-286h696v-287h-983zM315 1644q0 26 10.5 49t28 40.5t41 27.5t49.5 10t49 -10t40.5 -27.5t27.5 -40.5t10 -49q0 -27 -10 -50.5t-27.5 -41t-40.5 -27.5t-49 -10t-49.5 10t-41 27.5t-28 41t-10.5 50.5zM682 1642q0 25 10 48 t27 40t40.5 27t49.5 10q25 0 47.5 -10t39 -27t26 -40t9.5 -48q0 -26 -9.5 -49t-26 -40.5t-39 -27.5t-47.5 -10q-26 0 -49.5 10t-40.5 27.5t-27 40.5t-10 49z" />
<glyph unicode="&#xcc;" horiz-adv-x="553" d="M-75 1733l166 209l295 -277l-111 -149zM133 0v1434h287v-1434h-287z" />
<glyph unicode="&#xcd;" horiz-adv-x="553" d="M133 0v1434h287v-1434h-287zM164 1667l297 277l164 -209l-348 -217z" />
<glyph unicode="&#xce;" horiz-adv-x="553" d="M4 1658l270 254l277 -254l-113 -143l-160 146l-151 -142zM133 0v1434h287v-1434h-287z" />
<glyph unicode="&#xcf;" horiz-adv-x="553" d="M-30 1644q0 26 10.5 49t28 40.5t41 27.5t49.5 10t49 -10t40.5 -27.5t27.5 -40.5t10 -49q0 -27 -10 -50.5t-27.5 -41t-40.5 -27.5t-49 -10t-49.5 10t-41 27.5t-28 41t-10.5 50.5zM133 0v1434h287v-1434h-287zM337 1642q0 25 10 48t27 40t40.5 27t49.5 10q25 0 47.5 -10 t39 -27t26 -40t9.5 -48q0 -26 -9.5 -49t-26 -40.5t-39 -27.5t-47.5 -10q-26 0 -49.5 10t-40.5 27.5t-27 40.5t-10 49z" />
<glyph unicode="&#xd0;" horiz-adv-x="1378" d="M8 588v272h164v574h432q99 0 190.5 -25.5t171 -72.5t145 -112.5t112.5 -145t72.5 -171t25.5 -190.5t-25.5 -190.5t-72.5 -171t-112.5 -145t-145 -112.5t-171 -72.5t-190.5 -25.5h-432v588h-164zM461 287h143q89 0 167.5 33.5t137 92t92 137t33.5 167.5t-33.5 167 t-92 136.5t-137 92.5t-167.5 34h-143v-287h166v-272h-166v-301z" />
<glyph unicode="&#xd1;" horiz-adv-x="1413" d="M133 0v1434h307l553 -945v945h287v-1434h-307l-553 944v-944h-287zM377 1674q0 89 54 139.5t147 50.5q39 0 66.5 -9.5t48 -23.5t35.5 -30.5t27.5 -30.5t25 -23.5t28.5 -9.5q17 0 26 15t9 38q0 27 -16 54l186 26q6 -18 11 -39q4 -18 7.5 -41t3.5 -49q0 -50 -15 -89.5 t-40.5 -67t-61 -42t-75.5 -14.5q-45 0 -77 19.5t-56.5 43t-46 43t-45.5 19.5q-19 0 -31 -17t-12 -34q0 -20 6.5 -38.5t17.5 -35.5l-188 -8q-10 18 -18 42q-7 20 -12 48.5t-5 63.5z" />
<glyph unicode="&#xd2;" horiz-adv-x="1593" d="M55 711q0 102 26.5 197t75 177t116.5 150t150.5 116t177 74.5t196.5 26.5t197 -26.5t177 -74.5t150 -116t116 -150t74.5 -177t26.5 -197t-26.5 -196.5t-74.5 -177t-116 -150.5t-150 -116.5t-177 -75t-197 -26.5t-196.5 26.5t-177 75t-150.5 116.5t-116.5 150.5t-75 177 t-26.5 196.5zM340 711q0 -94 36 -176.5t98 -144.5t145 -98t178 -36q94 0 177.5 36t145 98t97.5 144.5t36 176.5t-36 177.5t-97.5 145t-145 97.5t-177.5 36q-95 0 -178 -36t-145 -97.5t-98 -145t-36 -177.5zM440 1751l166 209l295 -277l-111 -149z" />
<glyph unicode="&#xd3;" horiz-adv-x="1593" d="M55 711q0 102 26.5 197t75 177t116.5 150t150.5 116t177 74.5t196.5 26.5t197 -26.5t177 -74.5t150 -116t116 -150t74.5 -177t26.5 -197t-26.5 -196.5t-74.5 -177t-116 -150.5t-150 -116.5t-177 -75t-197 -26.5t-196.5 26.5t-177 75t-150.5 116.5t-116.5 150.5t-75 177 t-26.5 196.5zM340 711q0 -94 36 -176.5t98 -144.5t145 -98t178 -36q94 0 177.5 36t145 98t97.5 144.5t36 176.5t-36 177.5t-97.5 145t-145 97.5t-177.5 36q-95 0 -178 -36t-145 -97.5t-98 -145t-36 -177.5zM696 1683l297 277l164 -209l-348 -217z" />
<glyph unicode="&#xd4;" horiz-adv-x="1593" d="M55 711q0 102 26.5 197t75 177t116.5 150t150.5 116t177 74.5t196.5 26.5t197 -26.5t177 -74.5t150 -116t116 -150t74.5 -177t26.5 -197t-26.5 -196.5t-74.5 -177t-116 -150.5t-150 -116.5t-177 -75t-197 -26.5t-196.5 26.5t-177 75t-150.5 116.5t-116.5 150.5t-75 177 t-26.5 196.5zM340 711q0 -94 36 -176.5t98 -144.5t145 -98t178 -36q94 0 177.5 36t145 98t97.5 144.5t36 176.5t-36 177.5t-97.5 145t-145 97.5t-177.5 36q-95 0 -178 -36t-145 -97.5t-98 -145t-36 -177.5zM522 1660l270 254l277 -254l-113 -143l-160 146l-151 -142z" />
<glyph unicode="&#xd5;" horiz-adv-x="1593" d="M55 711q0 102 26.5 197t75 177t116.5 150t150.5 116t177 74.5t196.5 26.5t197 -26.5t177 -74.5t150 -116t116 -150t74.5 -177t26.5 -197t-26.5 -196.5t-74.5 -177t-116 -150.5t-150 -116.5t-177 -75t-197 -26.5t-196.5 26.5t-177 75t-150.5 116.5t-116.5 150.5t-75 177 t-26.5 196.5zM340 711q0 -94 36 -176.5t98 -144.5t145 -98t178 -36q94 0 177.5 36t145 98t97.5 144.5t36 176.5t-36 177.5t-97.5 145t-145 97.5t-177.5 36q-95 0 -178 -36t-145 -97.5t-98 -145t-36 -177.5zM467 1676q0 89 54 139.5t147 50.5q39 0 66.5 -9.5t48 -23.5 t35.5 -30.5t27.5 -30.5t25 -23.5t28.5 -9.5q17 0 26 15t9 38q0 27 -16 54l186 26q6 -18 11 -39q4 -18 7.5 -41t3.5 -49q0 -50 -15 -89.5t-40.5 -67t-61 -42t-75.5 -14.5q-45 0 -77 19.5t-56.5 43t-46 43t-45.5 19.5q-19 0 -31 -17t-12 -34q0 -20 6.5 -38.5t17.5 -35.5 l-188 -8q-10 18 -18 42q-7 20 -12 48.5t-5 63.5z" />
<glyph unicode="&#xd6;" horiz-adv-x="1593" d="M55 711q0 102 26.5 197t75 177t116.5 150t150.5 116t177 74.5t196.5 26.5t197 -26.5t177 -74.5t150 -116t116 -150t74.5 -177t26.5 -197t-26.5 -196.5t-74.5 -177t-116 -150.5t-150 -116.5t-177 -75t-197 -26.5t-196.5 26.5t-177 75t-150.5 116.5t-116.5 150.5t-75 177 t-26.5 196.5zM340 711q0 -94 36 -176.5t98 -144.5t145 -98t178 -36q94 0 177.5 36t145 98t97.5 144.5t36 176.5t-36 177.5t-97.5 145t-145 97.5t-177.5 36q-95 0 -178 -36t-145 -97.5t-98 -145t-36 -177.5zM487 1642q0 26 10.5 49t28 40.5t41 27.5t49.5 10t49 -10 t40.5 -27.5t27.5 -40.5t10 -49q0 -27 -10 -50.5t-27.5 -41t-40.5 -27.5t-49 -10t-49.5 10t-41 27.5t-28 41t-10.5 50.5zM854 1640q0 25 10 48t27 40t40.5 27t49.5 10q25 0 47.5 -10t39 -27t26 -40t9.5 -48q0 -26 -9.5 -49t-26 -40.5t-39 -27.5t-47.5 -10q-26 0 -49.5 10 t-40.5 27.5t-27 40.5t-10 49z" />
<glyph unicode="&#xd7;" horiz-adv-x="981" d="M94 926l193 192l200 -200l209 208l193 -194l-209 -207l201 -201l-193 -192l-201 200l-192 -192l-193 192l193 193z" />
<glyph unicode="&#xd8;" horiz-adv-x="1593" d="M55 711q0 102 26.5 197t75 177t116.5 150t150.5 116t177 74.5t196.5 26.5q91 0 176.5 -22t161.5 -60l47 64h274l-141 -195q51 -50 92.5 -109.5t70.5 -126.5t44.5 -140.5t15.5 -151.5q0 -102 -26.5 -196.5t-74.5 -177t-116 -150.5t-150 -116.5t-177 -75t-197 -26.5 q-94 0 -181 22t-165 64l-39 -55h-275l135 186q-100 103 -158.5 236.5t-58.5 288.5zM340 711q0 -84 27.5 -157t76.5 -132l521 713q-41 15 -82 23.5t-86 8.5q-95 0 -178 -36t-145 -97.5t-98 -145t-36 -177.5zM623 291q81 -35 174 -35q94 0 177.5 36t145 98t97.5 144.5 t36 176.5q0 85 -28.5 160t-79.5 135z" />
<glyph unicode="&#xd9;" d="M117 573v861h286v-861q0 -59 22.5 -111t61.5 -91t91.5 -61.5t111.5 -22.5t111.5 22.5t91.5 61.5t61.5 91t22.5 111v861h287v-861q0 -119 -45 -223.5t-123 -182t-182.5 -122.5t-223.5 -45t-223.5 45t-182 122.5t-122.5 182t-45 223.5zM348 1715l166 209l295 -277 l-111 -149z" />
<glyph unicode="&#xda;" d="M117 573v861h286v-861q0 -59 22.5 -111t61.5 -91t91.5 -61.5t111.5 -22.5t111.5 22.5t91.5 61.5t61.5 91t22.5 111v861h287v-861q0 -119 -45 -223.5t-123 -182t-182.5 -122.5t-223.5 -45t-223.5 45t-182 122.5t-122.5 182t-45 223.5zM592 1667l297 277l164 -209 l-348 -217z" />
<glyph unicode="&#xdb;" d="M117 573v861h286v-861q0 -59 22.5 -111t61.5 -91t91.5 -61.5t111.5 -22.5t111.5 22.5t91.5 61.5t61.5 91t22.5 111v861h287v-861q0 -119 -45 -223.5t-123 -182t-182.5 -122.5t-223.5 -45t-223.5 45t-182 122.5t-122.5 182t-45 223.5zM416 1636l270 254l277 -254 l-113 -143l-160 146l-151 -142z" />
<glyph unicode="&#xdc;" d="M117 573v861h286v-861q0 -59 22.5 -111t61.5 -91t91.5 -61.5t111.5 -22.5t111.5 22.5t91.5 61.5t61.5 91t22.5 111v861h287v-861q0 -119 -45 -223.5t-123 -182t-182.5 -122.5t-223.5 -45t-223.5 45t-182 122.5t-122.5 182t-45 223.5zM381 1626q0 26 10.5 49t28 40.5 t41 27.5t49.5 10t49 -10t40.5 -27.5t27.5 -40.5t10 -49q0 -27 -10 -50.5t-27.5 -41t-40.5 -27.5t-49 -10t-49.5 10t-41 27.5t-28 41t-10.5 50.5zM748 1624q0 25 10 48t27 40t40.5 27t49.5 10q25 0 47.5 -10t39 -27t26 -40t9.5 -48q0 -26 -9.5 -49t-26 -40.5t-39 -27.5 t-47.5 -10q-26 0 -49.5 10t-40.5 27.5t-27 40.5t-10 49z" />
<glyph unicode="&#xdd;" horiz-adv-x="1270" d="M61 1004v430h287v-430q0 -59 22.5 -111.5t61.5 -91.5t91.5 -61.5t111.5 -22.5t111.5 22.5t91.5 61.5t61.5 91.5t22.5 111.5v430h286v-430q0 -99 -31.5 -188.5t-88.5 -163t-136 -126.5t-174 -77v-449h-286v449q-95 24 -174.5 77t-136.5 126.5t-88.5 163t-31.5 188.5z M528 1642l297 277l164 -209l-348 -217z" />
<glyph unicode="&#xde;" horiz-adv-x="1305" d="M133 -61v1556h287v-205h287q118 0 222.5 -45t182.5 -123t123 -182.5t45 -222.5q0 -119 -45 -223.5t-123 -182.5t-182.5 -123t-222.5 -45h-287v-204h-287zM420 430h287q59 0 111 22.5t91 61.5t61.5 91.5t22.5 111.5t-22.5 111t-61.5 91t-91 62t-111 23h-287v-574z" />
<glyph unicode="&#xdf;" horiz-adv-x="1667" d="M45 799v272h133v51q0 99 37.5 186t103 151.5t152.5 102t186 37.5h267q40 0 85 -10t89.5 -30.5t85.5 -53t72.5 -77t50 -102t18.5 -128.5q0 -75 -18.5 -134t-50 -103.5t-72.5 -75.5t-85.5 -50.5t-89.5 -28.5t-85 -9q-28 0 -48 -20t-20 -48q0 -29 20 -49.5t48 -20.5h387 q70 0 131.5 -23.5t108 -65.5t73.5 -101t27 -129q0 -71 -27 -132.5t-73.5 -108t-108 -73t-131.5 -26.5h-645v272h645q28 0 47.5 20t19.5 48q0 29 -19.5 38t-47.5 9h-387q-71 0 -133 27t-108 73.5t-72.5 108.5t-26.5 133t26.5 133t72.5 108t108 72.5t133 26.5q14 0 36 4.5 t42.5 18t35.5 39t15 67.5q0 37 -15 61.5t-35.5 39.5t-42.5 21.5t-36 6.5h-267q-44 0 -81.5 -15.5t-65 -43t-43.5 -65t-16 -81.5v-1122h-273v799h-133z" />
<glyph unicode="&#xe0;" horiz-adv-x="1245" d="M47 545q0 125 43 229.5t117.5 179.5t174 116.5t212.5 41.5q52 0 103 -13t99 -36t91.5 -54t81.5 -67l106 127h66v-1069h-66l-106 147q-39 -35 -82.5 -65.5t-91.5 -53t-98.5 -35.5t-102.5 -13q-113 0 -212.5 38t-174 110.5t-117.5 177.5t-43 239zM242 1411l166 209 l295 -277l-111 -149zM324 545q0 -70 21 -124.5t57.5 -91.5t86 -56t105.5 -19t105.5 24.5t86.5 65t58.5 93t21.5 108.5t-21.5 108.5t-58.5 93t-86.5 65t-105.5 24.5t-105.5 -19t-86 -56t-57.5 -91.5t-21 -124.5z" />
<glyph unicode="&#xe1;" horiz-adv-x="1245" d="M47 545q0 125 43 229.5t117.5 179.5t174 116.5t212.5 41.5q52 0 103 -13t99 -36t91.5 -54t81.5 -67l106 127h66v-1069h-66l-106 147q-39 -35 -82.5 -65.5t-91.5 -53t-98.5 -35.5t-102.5 -13q-113 0 -212.5 38t-174 110.5t-117.5 177.5t-43 239zM324 545q0 -70 21 -124.5 t57.5 -91.5t86 -56t105.5 -19t105.5 24.5t86.5 65t58.5 93t21.5 108.5t-21.5 108.5t-58.5 93t-86.5 65t-105.5 24.5t-105.5 -19t-86 -56t-57.5 -91.5t-21 -124.5zM477 1341l297 277l164 -209l-348 -217z" />
<glyph unicode="&#xe2;" horiz-adv-x="1245" d="M47 545q0 125 43 229.5t117.5 179.5t174 116.5t212.5 41.5q52 0 103 -13t99 -36t91.5 -54t81.5 -67l106 127h66v-1069h-66l-106 147q-39 -35 -82.5 -65.5t-91.5 -53t-98.5 -35.5t-102.5 -13q-113 0 -212.5 38t-174 110.5t-117.5 177.5t-43 239zM319 1312l270 254 l277 -254l-113 -143l-160 146l-151 -142zM324 545q0 -70 21 -124.5t57.5 -91.5t86 -56t105.5 -19t105.5 24.5t86.5 65t58.5 93t21.5 108.5t-21.5 108.5t-58.5 93t-86.5 65t-105.5 24.5t-105.5 -19t-86 -56t-57.5 -91.5t-21 -124.5z" />
<glyph unicode="&#xe3;" horiz-adv-x="1245" d="M47 545q0 125 43 229.5t117.5 179.5t174 116.5t212.5 41.5q52 0 103 -13t99 -36t91.5 -54t81.5 -67l106 127h66v-1069h-66l-106 147q-39 -35 -82.5 -65.5t-91.5 -53t-98.5 -35.5t-102.5 -13q-113 0 -212.5 38t-174 110.5t-117.5 177.5t-43 239zM264 1327q0 89 54 139.5 t147 50.5q39 0 66.5 -9.5t48 -23.5t35.5 -30.5t27.5 -30.5t25 -23.5t28.5 -9.5q17 0 26 15t9 38q0 27 -16 54l186 26q6 -18 11 -39q4 -18 7.5 -41t3.5 -49q0 -50 -15 -89.5t-40.5 -67t-61 -42t-75.5 -14.5q-45 0 -77 19.5t-56.5 43t-46 43t-45.5 19.5q-19 0 -31 -17t-12 -34 q0 -20 6.5 -38.5t17.5 -35.5l-188 -8q-10 18 -18 42q-7 20 -12 48.5t-5 63.5zM324 545q0 -70 21 -124.5t57.5 -91.5t86 -56t105.5 -19t105.5 24.5t86.5 65t58.5 93t21.5 108.5t-21.5 108.5t-58.5 93t-86.5 65t-105.5 24.5t-105.5 -19t-86 -56t-57.5 -91.5t-21 -124.5z" />
<glyph unicode="&#xe4;" horiz-adv-x="1245" d="M47 545q0 125 43 229.5t117.5 179.5t174 116.5t212.5 41.5q52 0 103 -13t99 -36t91.5 -54t81.5 -67l106 127h66v-1069h-66l-106 147q-39 -35 -82.5 -65.5t-91.5 -53t-98.5 -35.5t-102.5 -13q-113 0 -212.5 38t-174 110.5t-117.5 177.5t-43 239zM285 1300q0 26 10.5 49 t28 40.5t41 27.5t49.5 10t49 -10t40.5 -27.5t27.5 -40.5t10 -49q0 -27 -10 -50.5t-27.5 -41t-40.5 -27.5t-49 -10t-49.5 10t-41 27.5t-28 41t-10.5 50.5zM324 545q0 -70 21 -124.5t57.5 -91.5t86 -56t105.5 -19t105.5 24.5t86.5 65t58.5 93t21.5 108.5t-21.5 108.5t-58.5 93 t-86.5 65t-105.5 24.5t-105.5 -19t-86 -56t-57.5 -91.5t-21 -124.5zM652 1298q0 25 10 48t27 40t40.5 27t49.5 10q25 0 47.5 -10t39 -27t26 -40t9.5 -48q0 -26 -9.5 -49t-26 -40.5t-39 -27.5t-47.5 -10q-26 0 -49.5 10t-40.5 27.5t-27 40.5t-10 49z" />
<glyph unicode="&#xe5;" horiz-adv-x="1245" d="M47 545q0 125 43 229.5t117.5 179.5t174 116.5t212.5 41.5q52 0 103 -13t99 -36t91.5 -54t81.5 -67l106 127h66v-1069h-66l-106 147q-39 -35 -82.5 -65.5t-91.5 -53t-98.5 -35.5t-102.5 -13q-113 0 -212.5 38t-174 110.5t-117.5 177.5t-43 239zM324 545q0 -70 21 -124.5 t57.5 -91.5t86 -56t105.5 -19t105.5 24.5t86.5 65t58.5 93t21.5 108.5t-21.5 108.5t-58.5 93t-86.5 65t-105.5 24.5t-105.5 -19t-86 -56t-57.5 -91.5t-21 -124.5zM395 1386q0 41 15.5 77t42.5 63t63 43t76 16q41 0 77 -16t63 -43t42.5 -63t15.5 -77t-15.5 -76.5t-42.5 -62 t-63 -42t-77 -15.5q-40 0 -76 15.5t-63 42t-42.5 62t-15.5 76.5zM528 1386q0 -26 18 -44.5t46 -18.5q27 0 46 18.5t19 44.5q0 28 -19 48t-46 20q-28 0 -46 -20t-18 -48z" />
<glyph unicode="&#xe6;" horiz-adv-x="1999" d="M47 545q0 125 43 229.5t117.5 179.5t174 116.5t212.5 41.5q52 0 103 -13t99 -36t91.5 -54t81.5 -67l106 127h66v-104q74 71 169.5 109t207.5 38q67 0 131 -16t121.5 -46t107.5 -73.5t88 -97.5l-512 -617q16 -5 32 -6.5t32 -1.5q40 0 77 11t69 31.5t57.5 50t41.5 65.5 l201 -201q-38 -54 -87.5 -97t-107 -73t-121 -45.5t-130.5 -15.5q-112 0 -207.5 39t-169.5 110v-129h-66l-106 147q-39 -35 -82.5 -65.5t-91.5 -53t-98.5 -35.5t-102.5 -13q-113 0 -212.5 38t-174 110.5t-117.5 177.5t-43 239zM324 545q0 -70 21 -124.5t57.5 -91.5t86 -56 t105.5 -19t105.5 24.5t86.5 65t58.5 93t21.5 108.5t-21.5 108.5t-58.5 93t-86.5 65t-105.5 24.5t-105.5 -19t-86 -56t-57.5 -91.5t-21 -124.5zM1247 545q0 -15 1.5 -34t5 -38.5t9 -37.5t13.5 -32l317 422q-18 7 -36.5 9t-38.5 2q-56 0 -105.5 -20.5t-86.5 -58.5t-58 -91.5 t-21 -120.5z" />
<glyph unicode="&#xe7;" horiz-adv-x="1069" d="M45 524q0 123 43 230t117.5 186.5t174 125.5t212.5 46q67 0 131.5 -17t123 -49.5t108 -79.5t85.5 -108l-200 -201q-15 42 -41 75.5t-58.5 56.5t-70.5 35t-78 12q-56 0 -105.5 -23t-86 -64.5t-57.5 -98.5t-21 -126q0 -56 21 -105t57.5 -86t86 -58t105.5 -21q40 0 77 11 t69.5 31.5t58 50t41.5 65.5l200 -201q-36 -51 -81.5 -92t-98.5 -70t-112 -46t-121 -21l-21 -60q31 -4 59 -18t48.5 -36.5t32.5 -53t12 -66.5q0 -50 -17 -89t-47 -65.5t-71.5 -40.5t-90.5 -14h-16q-36 2 -69 15t-59 28q-30 18 -56 39l55 150q23 -17 46 -29q20 -11 41 -20 t38 -9q22 0 36.5 14t14.5 37q0 28 -21.5 40t-45.5 12q-32 0 -58 -17l66 189q-97 15 -180.5 63t-145 119t-96.5 162t-35 192z" />
<glyph unicode="&#xe8;" horiz-adv-x="1075" d="M47 545q0 127 43 232t117.5 179t174 115t212.5 41q67 0 131 -16t121.5 -46t107.5 -73.5t88 -97.5l-512 -617q16 -5 32 -6.5t32 -1.5q40 0 77 11t69.5 31.5t58 50t41.5 65.5l200 -201q-38 -54 -87.5 -97t-107 -73t-121 -45.5t-130.5 -15.5q-113 0 -212.5 42t-174 117 t-117.5 178.5t-43 227.5zM221 1409l166 209l295 -277l-111 -149zM324 545q0 -15 1.5 -34t5 -38.5t8.5 -37.5t13 -32l318 422q-19 7 -37.5 9t-38.5 2q-56 0 -105.5 -20.5t-86 -58.5t-57.5 -91.5t-21 -120.5z" />
<glyph unicode="&#xe9;" horiz-adv-x="1075" d="M47 545q0 127 43 232t117.5 179t174 115t212.5 41q67 0 131 -16t121.5 -46t107.5 -73.5t88 -97.5l-512 -617q16 -5 32 -6.5t32 -1.5q40 0 77 11t69.5 31.5t58 50t41.5 65.5l200 -201q-38 -54 -87.5 -97t-107 -73t-121 -45.5t-130.5 -15.5q-113 0 -212.5 42t-174 117 t-117.5 178.5t-43 227.5zM324 545q0 -15 1.5 -34t5 -38.5t8.5 -37.5t13 -32l318 422q-19 7 -37.5 9t-38.5 2q-56 0 -105.5 -20.5t-86 -58.5t-57.5 -91.5t-21 -120.5zM473 1343l297 277l164 -209l-348 -217z" />
<glyph unicode="&#xea;" horiz-adv-x="1075" d="M47 545q0 127 43 232t117.5 179t174 115t212.5 41q67 0 131 -16t121.5 -46t107.5 -73.5t88 -97.5l-512 -617q16 -5 32 -6.5t32 -1.5q40 0 77 11t69.5 31.5t58 50t41.5 65.5l200 -201q-38 -54 -87.5 -97t-107 -73t-121 -45.5t-130.5 -15.5q-113 0 -212.5 42t-174 117 t-117.5 178.5t-43 227.5zM270 1325l270 254l277 -254l-113 -143l-160 146l-151 -142zM324 545q0 -15 1.5 -34t5 -38.5t8.5 -37.5t13 -32l318 422q-19 7 -37.5 9t-38.5 2q-56 0 -105.5 -20.5t-86 -58.5t-57.5 -91.5t-21 -120.5z" />
<glyph unicode="&#xeb;" horiz-adv-x="1075" d="M47 545q0 127 43 232t117.5 179t174 115t212.5 41q67 0 131 -16t121.5 -46t107.5 -73.5t88 -97.5l-512 -617q16 -5 32 -6.5t32 -1.5q40 0 77 11t69.5 31.5t58 50t41.5 65.5l200 -201q-38 -54 -87.5 -97t-107 -73t-121 -45.5t-130.5 -15.5q-113 0 -212.5 42t-174 117 t-117.5 178.5t-43 227.5zM236 1314q0 26 10.5 49t28 40.5t41 27.5t49.5 10t49 -10t40.5 -27.5t27.5 -40.5t10 -49q0 -27 -10 -50.5t-27.5 -41t-40.5 -27.5t-49 -10t-49.5 10t-41 27.5t-28 41t-10.5 50.5zM324 545q0 -15 1.5 -34t5 -38.5t8.5 -37.5t13 -32l318 422 q-19 7 -37.5 9t-38.5 2q-56 0 -105.5 -20.5t-86 -58.5t-57.5 -91.5t-21 -120.5zM603 1312q0 25 10 48t27 40t40.5 27t49.5 10q25 0 47.5 -10t39 -27t26 -40t9.5 -48q0 -26 -9.5 -49t-26 -40.5t-39 -27.5t-47.5 -10q-26 0 -49.5 10t-40.5 27.5t-27 40.5t-10 49z" />
<glyph unicode="&#xec;" horiz-adv-x="483" d="M-108 1368l166 209l295 -277l-111 -149zM104 0v1071h275v-1071h-275z" />
<glyph unicode="&#xed;" horiz-adv-x="483" d="M104 0v1071h275v-1071h-275zM129 1300l297 277l164 -209l-348 -217z" />
<glyph unicode="&#xee;" horiz-adv-x="483" d="M-30 1288l270 254l277 -254l-113 -143l-160 146l-151 -142zM104 0v1071h275v-1071h-275z" />
<glyph unicode="&#xef;" horiz-adv-x="483" d="M-65 1273q0 26 10.5 49t28 40.5t41 27.5t49.5 10t49 -10t40.5 -27.5t27.5 -40.5t10 -49q0 -27 -10 -50.5t-27.5 -41t-40.5 -27.5t-49 -10t-49.5 10t-41 27.5t-28 41t-10.5 50.5zM104 0v1071h275v-1071h-275zM302 1271q0 25 10 48t27 40t40.5 27t49.5 10q25 0 47.5 -10 t39 -27t26 -40t9.5 -48q0 -26 -9.5 -49t-26 -40.5t-39 -27.5t-47.5 -10q-26 0 -49.5 10t-40.5 27.5t-27 40.5t-10 49z" />
<glyph unicode="&#xf0;" horiz-adv-x="1190" d="M45 545q0 122 43 224t117.5 176t174 115.5t212.5 41.5q12 0 27 -0.5t30.5 -3.5t30 -8.5t25.5 -14.5l-68 129h-371v232h230q-20 31 -41.5 61.5t-42.5 61.5h340q8 -15 19 -33q9 -16 22 -39t30 -51h283v-232h-162q37 -77 72 -162t63 -171t45 -171t17 -161h-2 q-2 -119 -45 -221.5t-117 -177.5t-173 -117.5t-212 -42.5t-212.5 43.5t-174 119t-117.5 179t-43 223.5zM322 545q0 -62 21 -115t57.5 -92t86 -61.5t105.5 -22.5t105.5 21t86.5 59t58.5 92t21.5 119q0 66 -21.5 119.5t-58.5 92t-86.5 59t-105.5 20.5t-105.5 -20.5t-86 -59 t-57.5 -92t-21 -119.5z" />
<glyph unicode="&#xf1;" horiz-adv-x="1151" d="M104 0v1071h66l90 -104q66 60 149.5 92.5t174.5 32.5q98 0 185 -37.5t152 -103t102.5 -153t37.5 -186.5v-612h-273v612q0 42 -16 79.5t-44 65.5t-65 44t-79 16q-43 0 -81 -16t-66 -44t-44 -65.5t-16 -79.5v-612h-273zM252 1309q0 89 54 139.5t147 50.5q39 0 66.5 -9.5 t48 -23.5t35.5 -30.5t27.5 -30.5t25 -23.5t28.5 -9.5q17 0 26 15t9 38q0 27 -16 54l186 26q6 -18 11 -39q4 -18 7.5 -41t3.5 -49q0 -50 -15 -89.5t-40.5 -67t-61 -42t-75.5 -14.5q-45 0 -77 19.5t-56.5 43t-46 43t-45.5 19.5q-19 0 -31 -17t-12 -34q0 -20 6.5 -38.5 t17.5 -35.5l-188 -8q-10 18 -18 42q-7 20 -12 48.5t-5 63.5z" />
<glyph unicode="&#xf2;" horiz-adv-x="1186" d="M45 545q0 122 43 226t117.5 179.5t174 118.5t212.5 43q114 0 213.5 -40.5t173.5 -115t117 -179t43 -232.5q0 -120 -43 -223.5t-117 -179t-173.5 -119t-213.5 -43.5q-113 0 -212.5 43.5t-174 119t-117.5 179t-43 223.5zM238 1411l166 209l295 -277l-111 -149zM322 545 q0 -62 21 -115t57.5 -92t86 -61.5t105.5 -22.5t105.5 21t86.5 59t58.5 92t21.5 119q0 66 -21.5 119.5t-58.5 92t-86.5 59t-105.5 20.5t-105.5 -20.5t-86 -59t-57.5 -92t-21 -119.5z" />
<glyph unicode="&#xf3;" horiz-adv-x="1186" d="M45 545q0 122 43 226t117.5 179.5t174 118.5t212.5 43q114 0 213.5 -40.5t173.5 -115t117 -179t43 -232.5q0 -120 -43 -223.5t-117 -179t-173.5 -119t-213.5 -43.5q-113 0 -212.5 43.5t-174 119t-117.5 179t-43 223.5zM322 545q0 -62 21 -115t57.5 -92t86 -61.5 t105.5 -22.5t105.5 21t86.5 59t58.5 92t21.5 119q0 66 -21.5 119.5t-58.5 92t-86.5 59t-105.5 20.5t-105.5 -20.5t-86 -59t-57.5 -92t-21 -119.5zM475 1341l297 277l164 -209l-348 -217z" />
<glyph unicode="&#xf4;" horiz-adv-x="1186" d="M45 545q0 122 43 226t117.5 179.5t174 118.5t212.5 43q114 0 213.5 -40.5t173.5 -115t117 -179t43 -232.5q0 -120 -43 -223.5t-117 -179t-173.5 -119t-213.5 -43.5q-113 0 -212.5 43.5t-174 119t-117.5 179t-43 223.5zM317 1316l270 254l277 -254l-113 -143l-160 146 l-151 -142zM322 545q0 -62 21 -115t57.5 -92t86 -61.5t105.5 -22.5t105.5 21t86.5 59t58.5 92t21.5 119q0 66 -21.5 119.5t-58.5 92t-86.5 59t-105.5 20.5t-105.5 -20.5t-86 -59t-57.5 -92t-21 -119.5z" />
<glyph unicode="&#xf5;" horiz-adv-x="1186" d="M45 545q0 122 43 226t117.5 179.5t174 118.5t212.5 43q114 0 213.5 -40.5t173.5 -115t117 -179t43 -232.5q0 -120 -43 -223.5t-117 -179t-173.5 -119t-213.5 -43.5q-113 0 -212.5 43.5t-174 119t-117.5 179t-43 223.5zM262 1330q0 89 54 139.5t147 50.5q39 0 66.5 -9.5 t48 -23.5t35.5 -30.5t27.5 -30.5t25 -23.5t28.5 -9.5q17 0 26 15t9 38q0 27 -16 54l186 26q6 -18 11 -39q4 -18 7.5 -41t3.5 -49q0 -50 -15 -89.5t-40.5 -67t-61 -42t-75.5 -14.5q-45 0 -77 19.5t-56.5 43t-46 43t-45.5 19.5q-19 0 -31 -17t-12 -34q0 -20 6.5 -38.5 t17.5 -35.5l-188 -8q-10 18 -18 42q-7 20 -12 48.5t-5 63.5zM322 545q0 -62 21 -115t57.5 -92t86 -61.5t105.5 -22.5t105.5 21t86.5 59t58.5 92t21.5 119q0 66 -21.5 119.5t-58.5 92t-86.5 59t-105.5 20.5t-105.5 -20.5t-86 -59t-57.5 -92t-21 -119.5z" />
<glyph unicode="&#xf6;" horiz-adv-x="1186" d="M45 545q0 122 43 226t117.5 179.5t174 118.5t212.5 43q114 0 213.5 -40.5t173.5 -115t117 -179t43 -232.5q0 -120 -43 -223.5t-117 -179t-173.5 -119t-213.5 -43.5q-113 0 -212.5 43.5t-174 119t-117.5 179t-43 223.5zM283 1300q0 26 10.5 49t28 40.5t41 27.5t49.5 10 t49 -10t40.5 -27.5t27.5 -40.5t10 -49q0 -27 -10 -50.5t-27.5 -41t-40.5 -27.5t-49 -10t-49.5 10t-41 27.5t-28 41t-10.5 50.5zM322 545q0 -62 21 -115t57.5 -92t86 -61.5t105.5 -22.5t105.5 21t86.5 59t58.5 92t21.5 119q0 66 -21.5 119.5t-58.5 92t-86.5 59t-105.5 20.5 t-105.5 -20.5t-86 -59t-57.5 -92t-21 -119.5zM650 1298q0 25 10 48t27 40t40.5 27t49.5 10q25 0 47.5 -10t39 -27t26 -40t9.5 -48q0 -26 -9.5 -49t-26 -40.5t-39 -27.5t-47.5 -10q-26 0 -49.5 10t-40.5 27.5t-27 40.5t-10 49z" />
<glyph unicode="&#xf7;" horiz-adv-x="1012" d="M86 588v272h840v-272h-840zM362 383q0 30 11.5 56.5t31.5 46t47 31t58 11.5q30 0 56 -11.5t45.5 -31t30.5 -46t11 -56.5t-11 -56.5t-30.5 -46t-45.5 -31t-56 -11.5q-31 0 -58 11.5t-47 31t-31.5 46t-11.5 56.5zM362 1079q0 30 11.5 56.5t31.5 46.5t47 31.5t58 11.5 q30 0 56 -11.5t45.5 -31.5t30.5 -46.5t11 -56.5t-11 -56.5t-30.5 -46t-45.5 -31t-56 -11.5q-31 0 -58 11.5t-47 31t-31.5 46t-11.5 56.5z" />
<glyph unicode="&#xf8;" horiz-adv-x="1186" d="M45 545q0 122 43 226t117.5 179.5t174 118.5t212.5 43q68 0 131 -15.5t119 -43.5l24 32h275l-127 -170q59 -72 92 -165t33 -205q0 -120 -43 -223.5t-117 -179t-173.5 -119t-213.5 -43.5q-65 0 -124.5 14t-113.5 39l-24 -33h-275l125 168q-63 75 -99 170t-36 207zM322 545 q0 -40 8.5 -76.5t23.5 -67.5l316 422q-19 6 -38.5 9.5t-39.5 3.5q-56 0 -105.5 -20.5t-86 -59t-57.5 -92t-21 -119.5zM526 262q16 -5 32.5 -6.5t33.5 -1.5q56 0 105.5 21t86.5 59t58.5 92t21.5 119q0 72 -28 133z" />
<glyph unicode="&#xf9;" horiz-adv-x="1151" d="M90 479v592h272v-592q0 -54 16.5 -96.5t44.5 -71.5t65.5 -44t80.5 -15q42 0 79.5 19.5t65.5 51.5t44 72.5t16 83.5v592h273v-1071h-66l-90 125q-33 -30 -70.5 -56.5t-78.5 -46t-84.5 -31t-88.5 -11.5q-99 0 -186 35t-152.5 99.5t-103 157t-37.5 207.5zM215 1346l166 209 l295 -277l-111 -149z" />
<glyph unicode="&#xfa;" horiz-adv-x="1151" d="M90 479v592h272v-592q0 -54 16.5 -96.5t44.5 -71.5t65.5 -44t80.5 -15q42 0 79.5 19.5t65.5 51.5t44 72.5t16 83.5v592h273v-1071h-66l-90 125q-33 -30 -70.5 -56.5t-78.5 -46t-84.5 -31t-88.5 -11.5q-99 0 -186 35t-152.5 99.5t-103 157t-37.5 207.5zM461 1278l297 277 l164 -209l-348 -217z" />
<glyph unicode="&#xfb;" horiz-adv-x="1151" d="M90 479v592h272v-592q0 -54 16.5 -96.5t44.5 -71.5t65.5 -44t80.5 -15q42 0 79.5 19.5t65.5 51.5t44 72.5t16 83.5v592h273v-1071h-66l-90 125q-33 -30 -70.5 -56.5t-78.5 -46t-84.5 -31t-88.5 -11.5q-99 0 -186 35t-152.5 99.5t-103 157t-37.5 207.5zM295 1273l270 254 l277 -254l-113 -143l-160 146l-151 -142z" />
<glyph unicode="&#xfc;" horiz-adv-x="1151" d="M90 479v592h272v-592q0 -54 16.5 -96.5t44.5 -71.5t65.5 -44t80.5 -15q42 0 79.5 19.5t65.5 51.5t44 72.5t16 83.5v592h273v-1071h-66l-90 125q-33 -30 -70.5 -56.5t-78.5 -46t-84.5 -31t-88.5 -11.5q-99 0 -186 35t-152.5 99.5t-103 157t-37.5 207.5zM260 1280 q0 26 10.5 49t28 40.5t41 27.5t49.5 10t49 -10t40.5 -27.5t27.5 -40.5t10 -49q0 -27 -10 -50.5t-27.5 -41t-40.5 -27.5t-49 -10t-49.5 10t-41 27.5t-28 41t-10.5 50.5zM627 1278q0 25 10 48t27 40t40.5 27t49.5 10q25 0 47.5 -10t39 -27t26 -40t9.5 -48q0 -26 -9.5 -49 t-26 -40.5t-39 -27.5t-47.5 -10q-26 0 -49.5 10t-40.5 27.5t-27 40.5t-10 49z" />
<glyph unicode="&#xfd;" horiz-adv-x="1153" d="M90 479v592h272v-592q0 -57 16.5 -99.5t44.5 -71t65.5 -42.5t80.5 -14q42 0 79.5 19.5t65.5 51.5t44 72.5t16 83.5v592h275v-936q-1 -113 -44 -212t-117.5 -173t-173.5 -117t-212 -43l-140 2v275l152 -2q40 0 77 13t68.5 36t55.5 54.5t39 68.5q-45 -19 -91.5 -38 t-93.5 -19q-99 0 -186 35t-152.5 99.5t-103 157t-37.5 207.5zM457 1280l297 277l164 -209l-348 -217z" />
<glyph unicode="&#xfe;" horiz-adv-x="1247" d="M104 -408v1924h289v-486q59 35 125 57.5t135 22.5q121 0 222 -43.5t173 -120t112 -179.5t40 -222q0 -122 -39 -225.5t-110.5 -180t-172.5 -119.5t-225 -43q-36 0 -72 8t-70.5 21.5t-67.5 30.5t-64 35v-480h-275zM381 545q0 -59 19.5 -112t55 -93t85.5 -63t112 -23 q61 0 111.5 23t86.5 63t55.5 93t19.5 112q0 61 -19 114t-54.5 92.5t-86 62t-113.5 22.5t-113.5 -22.5t-85.5 -62t-54 -92.5t-19 -114z" />
<glyph unicode="&#xff;" horiz-adv-x="1153" d="M90 479v592h272v-592q0 -57 16.5 -99.5t44.5 -71t65.5 -42.5t80.5 -14q42 0 79.5 19.5t65.5 51.5t44 72.5t16 83.5v592h275v-936q-1 -113 -44 -212t-117.5 -173t-173.5 -117t-212 -43l-140 2v275l152 -2q40 0 77 13t68.5 36t55.5 54.5t39 68.5q-45 -19 -91.5 -38 t-93.5 -19q-99 0 -186 35t-152.5 99.5t-103 157t-37.5 207.5zM260 1294q0 26 10.5 49t28 40.5t41 27.5t49.5 10t49 -10t40.5 -27.5t27.5 -40.5t10 -49q0 -27 -10 -50.5t-27.5 -41t-40.5 -27.5t-49 -10t-49.5 10t-41 27.5t-28 41t-10.5 50.5zM627 1292q0 25 10 48t27 40 t40.5 27t49.5 10q25 0 47.5 -10t39 -27t26 -40t9.5 -48q0 -26 -9.5 -49t-26 -40.5t-39 -27.5t-47.5 -10q-26 0 -49.5 10t-40.5 27.5t-27 40.5t-10 49z" />
<glyph unicode="&#x152;" horiz-adv-x="2306" d="M55 711q0 102 26.5 197t75 177t116.5 150t150.5 116t177 74.5t196.5 26.5q130 0 246 -42t212 -118v142h983v-287h-696v-287h471v-287h-471v-286h696v-287h-983v127q-96 -74 -212 -116t-246 -42q-102 0 -196.5 26.5t-177 75t-150.5 116.5t-116.5 150.5t-75 177 t-26.5 196.5zM340 711q0 -94 36 -176.5t98 -144.5t145 -98t178 -36q94 0 177.5 36t145 98t97.5 144.5t36 176.5t-36 177.5t-97.5 145t-145 97.5t-177.5 36q-95 0 -178 -36t-145 -97.5t-98 -145t-36 -177.5z" />
<glyph unicode="&#x153;" horiz-adv-x="1894" d="M45 545q0 122 43 226t117.5 179.5t174 118.5t212.5 43q124 0 230 -48t182 -134q75 86 180 134t229 48q67 0 131 -16t121.5 -46t107.5 -73.5t89 -97.5l-512 -617q15 -5 31.5 -6.5t31.5 -1.5q40 0 77.5 11t69.5 31.5t57.5 50t41.5 65.5l201 -201q-39 -54 -88.5 -97 t-107 -73t-121 -45.5t-130.5 -15.5q-124 0 -230 49t-182 137q-75 -87 -180 -136.5t-229 -49.5q-113 0 -212.5 43.5t-174 119t-117.5 179t-43 223.5zM322 545q0 -62 21 -115t57.5 -92t86 -61.5t105.5 -22.5t105.5 21t86.5 59t58.5 92t21.5 119q0 66 -21.5 119.5t-58.5 92 t-86.5 59t-105.5 20.5t-105.5 -20.5t-86 -59t-57.5 -92t-21 -119.5zM1143 545q0 -15 1.5 -34t5 -38.5t8.5 -37.5t13 -32l318 422q-19 7 -37.5 9t-38.5 2q-56 0 -105 -20.5t-86 -58.5t-58 -91.5t-21 -120.5z" />
<glyph unicode="&#x178;" horiz-adv-x="1270" d="M61 1004v430h287v-430q0 -59 22.5 -111.5t61.5 -91.5t91.5 -61.5t111.5 -22.5t111.5 22.5t91.5 61.5t61.5 91.5t22.5 111.5v430h286v-430q0 -99 -31.5 -188.5t-88.5 -163t-136 -126.5t-174 -77v-449h-286v449q-95 24 -174.5 77t-136.5 126.5t-88.5 163t-31.5 188.5z M326 1646q0 26 10.5 49t28 40.5t41 27.5t49.5 10t49 -10t40.5 -27.5t27.5 -40.5t10 -49q0 -27 -10 -50.5t-27.5 -41t-40.5 -27.5t-49 -10t-49.5 10t-41 27.5t-28 41t-10.5 50.5zM693 1644q0 25 10 48t27 40t40.5 27t49.5 10q25 0 47.5 -10t39 -27t26 -40t9.5 -48 q0 -26 -9.5 -49t-26 -40.5t-39 -27.5t-47.5 -10q-26 0 -49.5 10t-40.5 27.5t-27 40.5t-10 49z" />
<glyph unicode="&#x2c6;" horiz-adv-x="547" d="M0 1171l270 254l277 -254l-113 -143l-160 146l-151 -142z" />
<glyph unicode="&#x2dc;" horiz-adv-x="659" d="M0 1221q0 89 54 139.5t147 50.5q39 0 66.5 -9.5t48 -23.5t35.5 -30.5t27.5 -30.5t25 -23.5t28.5 -9.5q17 0 26 15t9 38q0 27 -16 54l186 26q6 -18 11 -39q4 -18 7.5 -41t3.5 -49q0 -50 -15 -89.5t-40.5 -67t-61 -42t-75.5 -14.5q-45 0 -77 19.5t-56.5 43t-46 43 t-45.5 19.5q-19 0 -31 -17t-12 -34q0 -20 6.5 -38.5t17.5 -35.5l-188 -8q-10 18 -18 42q-7 20 -12 48.5t-5 63.5z" />
<glyph unicode="&#x2000;" horiz-adv-x="980" />
<glyph unicode="&#x2001;" horiz-adv-x="1960" />
<glyph unicode="&#x2002;" horiz-adv-x="980" />
<glyph unicode="&#x2003;" horiz-adv-x="1960" />
<glyph unicode="&#x2004;" horiz-adv-x="653" />
<glyph unicode="&#x2005;" horiz-adv-x="490" />
<glyph unicode="&#x2006;" horiz-adv-x="326" />
<glyph unicode="&#x2007;" horiz-adv-x="326" />
<glyph unicode="&#x2008;" horiz-adv-x="245" />
<glyph unicode="&#x2009;" horiz-adv-x="392" />
<glyph unicode="&#x200a;" horiz-adv-x="108" />
<glyph unicode="&#x2010;" horiz-adv-x="1083" d="M121 588v272h840v-272h-840z" />
<glyph unicode="&#x2011;" horiz-adv-x="1083" d="M121 588v272h840v-272h-840z" />
<glyph unicode="&#x2012;" horiz-adv-x="1083" d="M121 588v272h840v-272h-840z" />
<glyph unicode="&#x2013;" horiz-adv-x="858" d="M123 588v272h614v-272h-614z" />
<glyph unicode="&#x2014;" horiz-adv-x="1473" d="M123 588v272h1229v-272h-1229z" />
<glyph unicode="&#x2018;" horiz-adv-x="504" d="M86 1071q0 44 8.5 94.5t27 100t48.5 94t72 76.5l108 -76q-28 -32 -41.5 -61t-21.5 -58q30 -5 56 -20.5t44.5 -38t29.5 -51t11 -60.5q0 -35 -13.5 -65.5t-37 -54t-54.5 -37t-65 -13.5q-36 0 -67.5 13.5t-54.5 37t-36.5 54t-13.5 65.5z" />
<glyph unicode="&#x2019;" horiz-adv-x="502" d="M76 1266q0 34 13.5 65t37 54.5t54 37t65.5 13.5q36 0 67.5 -13.5t54.5 -37t36.5 -54.5t13.5 -65q0 -44 -8.5 -94.5t-27 -100t-48.5 -94.5t-72 -76l-108 76q27 32 41 61t22 58q-30 5 -56 20t-44.5 37.5t-29.5 51.5t-11 61z" />
<glyph unicode="&#x201a;" horiz-adv-x="541" d="M98 102q0 35 13.5 66t37 54t54 36.5t65.5 13.5q36 0 67.5 -13.5t55 -36.5t36.5 -54t13 -66q0 -44 -8.5 -94.5t-27 -100t-48 -94t-71.5 -75.5l-109 76q28 32 42 60.5t22 57.5q-30 6 -56 21t-45 37.5t-30 51t-11 60.5z" />
<glyph unicode="&#x201c;" horiz-adv-x="913" d="M86 1071q0 44 8.5 94.5t27 100t48.5 94t72 76.5l108 -76q-28 -32 -41.5 -61t-21.5 -58q30 -5 56 -20.5t44.5 -38t29.5 -51t11 -60.5q0 -35 -13.5 -65.5t-37 -54t-54.5 -37t-65 -13.5q-36 0 -67.5 13.5t-54.5 37t-36.5 54t-13.5 65.5zM496 1071q0 44 8.5 94.5t27 100 t48 94t71.5 76.5l109 -76q-28 -32 -42 -61t-22 -58q30 -5 56 -20.5t45 -38t30 -51t11 -60.5q0 -35 -13.5 -65.5t-37 -54t-54.5 -37t-65 -13.5q-36 0 -67.5 13.5t-55 37t-36.5 54t-13 65.5z" />
<glyph unicode="&#x201d;" horiz-adv-x="911" d="M76 1266q0 34 13.5 65t37 54.5t54 37t65.5 13.5q36 0 67.5 -13.5t54.5 -37t36.5 -54.5t13.5 -65q0 -44 -8.5 -94.5t-27 -100t-48.5 -94.5t-72 -76l-108 76q27 32 41 61t22 58q-30 5 -56 20t-44.5 37.5t-29.5 51.5t-11 61zM485 1266q0 34 13.5 65t37 54.5t54 37t65.5 13.5 q36 0 67.5 -13.5t55 -37t36.5 -54.5t13 -65q0 -44 -8.5 -94.5t-27 -100t-48 -94.5t-71.5 -76l-109 76q28 32 42 61t22 58q-30 5 -56 20t-45 37.5t-30 51.5t-11 61z" />
<glyph unicode="&#x201e;" horiz-adv-x="950" d="M98 102q0 35 13.5 66t37 54t54 36.5t65.5 13.5q36 0 67.5 -13.5t55 -36.5t36.5 -54t13 -66q0 -44 -8.5 -94.5t-27 -100t-48 -94t-71.5 -75.5l-109 76q28 32 42 60.5t22 57.5q-30 6 -56 21t-45 37.5t-30 51t-11 60.5zM508 102q0 35 13.5 66t37 54t54 36.5t65.5 13.5 q36 0 67.5 -13.5t54.5 -36.5t36.5 -54t13.5 -66q0 -44 -8.5 -94.5t-27 -100t-48.5 -94t-72 -75.5l-108 76q28 32 41.5 60.5t21.5 57.5q-30 6 -56 21t-44.5 37.5t-29.5 51t-11 60.5z" />
<glyph unicode="&#x2022;" horiz-adv-x="727" d="M150 741q0 44 17 82.5t46 67.5t68 46t84 17q43 0 82 -17t68 -46t46 -67.5t17 -82.5t-17 -83.5t-46 -68.5t-68 -46t-82 -17q-45 0 -84 17t-68 46t-46 68.5t-17 83.5z" />
<glyph unicode="&#x2026;" horiz-adv-x="1616" d="M98 102q0 35 13.5 66t37 54t55 36.5t66.5 13.5q36 0 67 -13.5t54 -36.5t36 -54t13 -66q0 -36 -13 -67.5t-36 -54.5t-54 -36.5t-67 -13.5q-35 0 -66.5 13.5t-55 36.5t-37 54.5t-13.5 67.5zM637 102q0 35 13.5 66t37 54t55 36.5t66.5 13.5t66 -13.5t54 -36.5t36.5 -54 t13.5 -66q0 -36 -13.5 -67.5t-36.5 -54.5t-54 -36.5t-66 -13.5t-66.5 13.5t-55 36.5t-37 54.5t-13.5 67.5zM1176 102q0 35 13.5 66t37 54t54.5 36.5t67 13.5q35 0 66 -13.5t54 -36.5t36.5 -54t13.5 -66q0 -36 -13.5 -67.5t-36.5 -54.5t-54 -36.5t-66 -13.5q-36 0 -67 13.5 t-54.5 36.5t-37 54.5t-13.5 67.5z" />
<glyph unicode="&#x202f;" horiz-adv-x="392" />
<glyph unicode="&#x2039;" horiz-adv-x="827" d="M49 510l512 532l184 -172l-348 -350l346 -315l-170 -189z" />
<glyph unicode="&#x203a;" horiz-adv-x="825" d="M82 870l182 172l512 -532l-524 -494l-168 189l346 315z" />
<glyph unicode="&#x205f;" horiz-adv-x="490" />
<glyph unicode="&#x20ac;" horiz-adv-x="1651" d="M68 408l55 251h219q-2 13 -2 25.5v26.5v45h-197l56 252h202q43 98 112 180t157.5 141t192.5 92t218 33q133 0 257.5 -45.5t224.5 -132.5l-152 -250q-63 68 -149.5 104.5t-180.5 36.5q-105 0 -195 -43.5t-153 -115.5h303l-55 -252h-354q-2 -11 -2 -22.5v-22.5v-26.5 t2 -25.5h334l-56 -251h-164q63 -72 150.5 -112t189.5 -40q94 0 180.5 36.5t149.5 104.5l152 -250q-100 -86 -224.5 -132t-257.5 -46q-113 0 -216 32.5t-190.5 90.5t-156.5 138.5t-112 177.5h-338z" />
<glyph unicode="&#x2122;" horiz-adv-x="1243" d="M119 1333v103h413v-103h-155v-413h-103v413h-155zM596 920v368q0 32 12 60.5t33 49.5t49 33.5t60 12.5q29 0 55.5 -10.5t48.5 -30.5q22 20 48.5 30.5t53.5 10.5q32 0 60.5 -12.5t49.5 -33.5t33.5 -49.5t12.5 -60.5v-368h-104v368q0 22 -14.5 36.5t-37.5 14.5 q-21 0 -36 -14.5t-15 -36.5v-368h-102v368q0 22 -15 36.5t-38 14.5q-20 0 -36 -14.5t-16 -36.5v-368h-102z" />
<glyph unicode="&#xe000;" horiz-adv-x="1075" d="M0 0v1075h1075v-1075h-1075z" />
<glyph unicode="&#xfb01;" horiz-adv-x="1333" d="M45 799v272h133v51q0 99 37.5 186t103 151.5t152.5 102t186 37.5h205v-272h-205q-44 0 -81.5 -15.5t-65 -43t-43.5 -65t-16 -81.5v-51h778v-1071h-275v799h-503v-799h-273v799h-133zM909 1362q0 37 14.5 70.5t39 58t58 39t71.5 14.5t71.5 -14.5t58.5 -39t39.5 -58 t14.5 -70.5q0 -38 -14.5 -71t-39.5 -57.5t-58.5 -39t-71.5 -14.5t-71.5 14.5t-58 39t-39 57.5t-14.5 71z" />
<glyph unicode="&#xfb02;" horiz-adv-x="1294" d="M45 799v272h133v51q0 99 37.5 186t103 151.5t152.5 102t186 37.5h535l-2 -1599h-275v1327h-258q-44 0 -81.5 -15.5t-65 -43t-43.5 -65t-16 -81.5v-51h335v-272h-335v-799h-273v799h-133z" />
</font>
</defs>
</svg>
